M48
; DRILL file KiCad 10.0.5 date 2026-08-07T15:51:33
; FORMAT={-:-/ absolute / metric / decimal}
; #@! TF.CreationDate,2026-08-07T15:51:33+05:30
; #@! TF.GenerationSoftware,Kicad,Pcbnew,10.0.5
; #@! TF.FileFunction,Plated,1,2,PTH
FMAT,2
METRIC
; #@! TA.AperFunction,Plated,PTH,ComponentDrill
T1C0.800
; #@! TA.AperFunction,Plated,PTH,ComponentDrill
T2C1.000
; #@! TA.AperFunction,Plated,PTH,ComponentDrill
T3C1.524
; #@! TA.AperFunction,Plated,PTH,ComponentDrill
T4C3.048
%
G90
G05
T1
X40.5Y-131.69
X40.5Y-139.31
X42.0Y-23.69
X42.0Y-31.31
X42.0Y-66.38
X42.0Y-74.0
X42.0Y-109.69
X42.0Y-117.31
X42.5Y-87.69
X42.5Y-95.31
X43.5Y-45.38
X43.5Y-53.0
X60.0Y-131.69
X60.0Y-139.31
X66.0Y-67.19
X66.0Y-74.81
X66.5Y-24.19
X66.5Y-31.81
X66.5Y-45.69
X66.5Y-53.31
X66.5Y-87.69
X66.5Y-95.31
X73.0Y-109.69
X73.0Y-117.31
X79.0Y-131.5
X79.0Y-139.12
X85.5Y-24.19
X85.5Y-31.81
X85.5Y-45.69
X85.5Y-53.31
X85.5Y-67.19
X85.5Y-74.81
X85.5Y-88.19
X85.5Y-95.81
X92.5Y-109.69
X92.5Y-117.31
X104.5Y-23.69
X104.5Y-31.31
X104.5Y-45.69
X104.5Y-53.31
X104.5Y-67.0
X104.5Y-74.62
X104.5Y-88.19
X104.5Y-95.81
X112.0Y-109.5
X112.0Y-117.12
X123.5Y-24.19
X123.5Y-31.81
X123.5Y-45.69
X123.5Y-53.31
X123.5Y-67.0
X123.5Y-74.62
X123.5Y-88.19
X123.5Y-95.81
X131.0Y-109.5
X131.0Y-117.12
X142.5Y-24.19
X142.5Y-31.81
X142.5Y-45.69
X142.5Y-53.31
X142.5Y-67.0
X142.5Y-74.62
X142.5Y-88.0
X142.5Y-95.62
X149.5Y-109.5
X149.5Y-117.12
X150.0Y-130.69
X150.0Y-138.31
X161.5Y-24.19
X161.5Y-31.81
X161.5Y-45.88
X161.5Y-53.5
X161.5Y-67.19
X161.5Y-74.81
X161.5Y-88.19
X161.5Y-95.81
X169.0Y-109.69
X169.0Y-117.31
X180.5Y-24.19
X180.5Y-31.81
X180.5Y-45.69
X180.5Y-53.31
X180.5Y-66.69
X180.5Y-74.31
X180.5Y-88.0
X180.5Y-95.62
X188.0Y-109.5
X188.0Y-117.12
X199.5Y-24.19
X199.5Y-31.81
X199.5Y-45.38
X199.5Y-53.0
X199.5Y-67.0
X199.5Y-74.62
X199.5Y-87.69
X199.5Y-95.31
X207.0Y-109.5
X207.0Y-117.12
X218.5Y-24.19
X218.5Y-31.81
X218.5Y-45.38
X218.5Y-53.0
X218.5Y-67.19
X218.5Y-74.81
X218.5Y-88.19
X218.5Y-95.81
X219.42Y-133.19
X219.42Y-140.81
X226.0Y-109.5
X226.0Y-117.12
X238.46Y-132.77
X238.46Y-140.39
X242.5Y-87.5
X242.5Y-95.12
X243.5Y-24.19
X243.5Y-31.81
X243.5Y-45.19
X243.5Y-52.81
X244.0Y-67.0
X244.0Y-74.62
X249.5Y-109.0
X249.5Y-116.62
X257.5Y-133.27
X257.5Y-140.89
X265.0Y-87.19
X265.0Y-94.81
X276.5Y-114.19
X276.5Y-121.81
X277.0Y-132.69
X277.0Y-140.31
X295.5Y-132.69
X295.5Y-140.31
T2
X261.72Y-20.64
X261.72Y-23.18
X261.72Y-25.72
X261.72Y-28.26
X261.72Y-30.8
X261.72Y-33.34
X261.72Y-35.88
X261.72Y-38.42
X261.72Y-40.96
X261.72Y-43.5
X261.72Y-46.04
X261.72Y-48.58
X261.72Y-51.12
X261.72Y-53.66
X261.72Y-56.2
X261.72Y-58.74
X261.72Y-61.28
X261.72Y-63.82
X261.72Y-66.36
X261.72Y-68.9
X279.5Y-20.64
X279.5Y-23.18
X279.5Y-25.72
X279.5Y-28.26
X279.5Y-30.8
X279.5Y-33.34
X279.5Y-35.88
X279.5Y-38.42
X279.5Y-40.96
X279.5Y-43.5
X279.5Y-46.04
X279.5Y-48.58
X279.5Y-51.12
X279.5Y-53.66
X279.5Y-56.2
X279.5Y-58.74
X279.5Y-61.28
X279.5Y-63.82
X279.5Y-66.36
X279.5Y-68.9
T3
X27.69Y-133.96
X28.69Y-26.46
X28.69Y-47.96
X28.69Y-69.46
X28.69Y-90.46
X28.69Y-111.96
X34.04Y-131.42
X35.04Y-23.92
X35.04Y-45.42
X35.04Y-66.92
X35.04Y-87.92
X35.04Y-109.42
X46.67Y-134.0
X53.01Y-26.46
X53.02Y-131.46
X53.09Y-69.46
X53.11Y-90.46
X53.19Y-47.96
X59.36Y-23.92
X59.44Y-66.92
X59.46Y-87.92
X59.54Y-45.42
X59.69Y-111.96
X65.69Y-133.96
X66.04Y-109.42
X72.04Y-131.42
X72.19Y-26.46
X72.19Y-47.96
X72.19Y-69.46
X72.19Y-90.46
X78.54Y-23.92
X78.54Y-45.42
X78.54Y-66.92
X78.54Y-87.92
X79.69Y-111.96
X86.04Y-109.42
X91.19Y-26.46
X91.19Y-47.96
X91.19Y-69.46
X91.19Y-90.46
X97.54Y-23.92
X97.54Y-45.42
X97.54Y-66.92
X97.54Y-87.92
X98.69Y-111.96
X105.04Y-109.42
X110.19Y-26.46
X110.19Y-69.46
X110.19Y-90.46
X110.27Y-47.96
X116.54Y-23.92
X116.54Y-66.92
X116.54Y-87.92
X116.62Y-45.42
X117.69Y-111.96
X124.04Y-109.42
X129.19Y-26.46
X129.19Y-69.46
X129.19Y-90.46
X129.27Y-47.96
X135.54Y-23.92
X135.54Y-66.92
X135.54Y-87.92
X135.62Y-45.42
X136.69Y-111.96
X136.69Y-132.96
X143.04Y-109.42
X143.04Y-130.42
X148.19Y-26.46
X148.19Y-47.96
X148.19Y-69.46
X148.19Y-90.46
X154.54Y-23.92
X154.54Y-45.42
X154.54Y-66.92
X154.54Y-87.92
X155.69Y-111.96
X162.04Y-109.42
X167.09Y-90.46
X167.19Y-26.46
X167.19Y-47.96
X167.19Y-69.46
X173.44Y-87.92
X173.54Y-23.92
X173.54Y-45.42
X173.54Y-66.92
X174.69Y-111.96
X181.04Y-109.42
X186.14Y-69.46
X186.19Y-26.46
X186.19Y-47.96
X186.19Y-90.46
X192.49Y-66.92
X192.54Y-23.92
X192.54Y-45.42
X192.54Y-87.92
X193.69Y-111.96
X200.04Y-109.42
X205.0Y-48.0
X205.19Y-26.46
X205.19Y-69.46
X205.19Y-90.46
X206.11Y-135.46
X211.35Y-45.46
X211.54Y-23.92
X211.54Y-66.92
X211.54Y-87.92
X212.46Y-132.92
X212.69Y-111.96
X219.04Y-109.42
X225.15Y-135.54
X229.19Y-89.96
X230.19Y-26.46
X230.19Y-47.5
X230.19Y-69.46
X231.5Y-133.0
X235.54Y-87.42
X236.19Y-111.46
X236.54Y-23.92
X236.54Y-44.96
X236.54Y-66.92
X242.54Y-108.92
X244.19Y-135.54
X250.54Y-133.0
X251.69Y-89.96
X258.04Y-87.42
X263.19Y-116.46
X263.19Y-135.46
X269.54Y-113.92
X269.54Y-132.92
X282.19Y-135.46
X288.54Y-132.92
T4
X90.494Y-128.515
X190.506Y-128.515
M30
