%TF.GenerationSoftware,KiCad,Pcbnew,10.0.5*%
%TF.CreationDate,2026-08-07T15:51:08+05:30*%
%TF.ProjectId,my keeb,6d79206b-6565-4622-9e6b-696361645f70,rev?*%
%TF.SameCoordinates,Original*%
%TF.FileFunction,Soldermask,Top*%
%TF.FilePolarity,Negative*%
%FSLAX46Y46*%
G04 Gerber Fmt 4.6, Leading zero omitted, Abs format (unit mm)*
G04 Created by KiCad (PCBNEW 10.0.5) date 2026-08-07 15:51:08*
%MOMM*%
%LPD*%
G01*
G04 APERTURE LIST*
G04 Aperture macros list*
%AMRoundRect*
0 Rectangle with rounded corners*
0 $1 Rounding radius*
0 $2 $3 $4 $5 $6 $7 $8 $9 X,Y pos of 4 corners*
0 Add a 4 corners polygon primitive as box body*
4,1,4,$2,$3,$4,$5,$6,$7,$8,$9,$2,$3,0*
0 Add four circle primitives for the rounded corners*
1,1,$1+$1,$2,$3*
1,1,$1+$1,$4,$5*
1,1,$1+$1,$6,$7*
1,1,$1+$1,$8,$9*
0 Add four rect primitives between the rounded corners*
20,1,$1+$1,$2,$3,$4,$5,0*
20,1,$1+$1,$4,$5,$6,$7,0*
20,1,$1+$1,$6,$7,$8,$9,0*
20,1,$1+$1,$8,$9,$2,$3,0*%
%AMFreePoly0*
4,1,37,0.603843,0.796157,0.639018,0.796157,0.711114,0.766294,0.766294,0.711114,0.796157,0.639018,0.796157,0.603843,0.800000,0.600000,0.800000,-0.600000,0.796157,-0.603843,0.796157,-0.639018,0.766294,-0.711114,0.711114,-0.766294,0.639018,-0.796157,0.603843,-0.796157,0.600000,-0.800000,0.000000,-0.800000,0.000000,-0.796148,-0.078414,-0.796148,-0.232228,-0.765552,-0.377117,-0.705537,
-0.507515,-0.618408,-0.618408,-0.507515,-0.705537,-0.377117,-0.765552,-0.232228,-0.796148,-0.078414,-0.796148,0.078414,-0.765552,0.232228,-0.705537,0.377117,-0.618408,0.507515,-0.507515,0.618408,-0.377117,0.705537,-0.232228,0.765552,-0.078414,0.796148,0.000000,0.796148,0.000000,0.800000,0.600000,0.800000,0.603843,0.796157,0.603843,0.796157,$1*%
%AMFreePoly1*
4,1,37,0.000000,0.796148,0.078414,0.796148,0.232228,0.765552,0.377117,0.705537,0.507515,0.618408,0.618408,0.507515,0.705537,0.377117,0.765552,0.232228,0.796148,0.078414,0.796148,-0.078414,0.765552,-0.232228,0.705537,-0.377117,0.618408,-0.507515,0.507515,-0.618408,0.377117,-0.705537,0.232228,-0.765552,0.078414,-0.796148,0.000000,-0.796148,0.000000,-0.800000,-0.600000,-0.800000,
-0.603843,-0.796157,-0.639018,-0.796157,-0.711114,-0.766294,-0.766294,-0.711114,-0.796157,-0.639018,-0.796157,-0.603843,-0.800000,-0.600000,-0.800000,0.600000,-0.796157,0.603843,-0.796157,0.639018,-0.766294,0.711114,-0.711114,0.766294,-0.639018,0.796157,-0.603843,0.796157,-0.600000,0.800000,0.000000,0.800000,0.000000,0.796148,0.000000,0.796148,$1*%
G04 Aperture macros list end*
%ADD10RoundRect,0.250000X0.550000X-0.550000X0.550000X0.550000X-0.550000X0.550000X-0.550000X-0.550000X0*%
%ADD11C,1.600000*%
%ADD12C,1.750000*%
%ADD13C,3.987800*%
%ADD14RoundRect,0.200000X-0.600000X-0.600000X0.600000X-0.600000X0.600000X0.600000X-0.600000X0.600000X0*%
%ADD15FreePoly0,0.000000*%
%ADD16FreePoly1,0.000000*%
G04 APERTURE END LIST*
D10*
%TO.C,D47*%
X112000000Y-117120000D03*
D11*
X112000000Y-109500000D03*
%TD*%
D12*
%TO.C,SW9*%
X184920000Y-29000000D03*
D13*
X190000000Y-29000000D03*
D12*
X195080000Y-29000000D03*
%TD*%
D10*
%TO.C,D43*%
X218500000Y-95810000D03*
D11*
X218500000Y-88190000D03*
%TD*%
D10*
%TO.C,D42*%
X199500000Y-95310000D03*
D11*
X199500000Y-87690000D03*
%TD*%
D12*
%TO.C,SW66*%
X250420000Y-92500000D03*
D13*
X255500000Y-92500000D03*
D12*
X260580000Y-92500000D03*
%TD*%
D10*
%TO.C,D27*%
X123500000Y-74620000D03*
D11*
X123500000Y-67000000D03*
%TD*%
D12*
%TO.C,SW18*%
X146920000Y-50500000D03*
D13*
X152000000Y-50500000D03*
D12*
X157080000Y-50500000D03*
%TD*%
D10*
%TO.C,D62*%
X238460000Y-140390000D03*
D11*
X238460000Y-132770000D03*
%TD*%
D13*
%TO.C,S1*%
X90493750Y-143755000D03*
X190506250Y-143755000D03*
%TD*%
D12*
%TO.C,SW2*%
X51740000Y-29000000D03*
D13*
X56820000Y-29000000D03*
D12*
X61900000Y-29000000D03*
%TD*%
D10*
%TO.C,D19*%
X218500000Y-53000000D03*
D11*
X218500000Y-45380000D03*
%TD*%
D12*
%TO.C,SW55*%
X234920000Y-114000000D03*
D13*
X240000000Y-114000000D03*
D12*
X245080000Y-114000000D03*
%TD*%
%TO.C,SW44*%
X227920000Y-92500000D03*
D13*
X233000000Y-92500000D03*
D12*
X238080000Y-92500000D03*
%TD*%
D10*
%TO.C,D45*%
X73000000Y-117310000D03*
D11*
X73000000Y-109690000D03*
%TD*%
D10*
%TO.C,D46*%
X92500000Y-117310000D03*
D11*
X92500000Y-109690000D03*
%TD*%
D12*
%TO.C,SW13*%
X51920000Y-50500000D03*
D13*
X57000000Y-50500000D03*
D12*
X62080000Y-50500000D03*
%TD*%
%TO.C,SW43*%
X203920000Y-93000000D03*
D13*
X209000000Y-93000000D03*
D12*
X214080000Y-93000000D03*
%TD*%
D10*
%TO.C,D6*%
X180500000Y-31810000D03*
D11*
X180500000Y-24190000D03*
%TD*%
D12*
%TO.C,SW25*%
X70920000Y-72000000D03*
D13*
X76000000Y-72000000D03*
D12*
X81080000Y-72000000D03*
%TD*%
%TO.C,SW52*%
X173420000Y-114500000D03*
D13*
X178500000Y-114500000D03*
D12*
X183580000Y-114500000D03*
%TD*%
D10*
%TO.C,D13*%
X66500000Y-53310000D03*
D11*
X66500000Y-45690000D03*
%TD*%
D12*
%TO.C,SW53*%
X192420000Y-114500000D03*
D13*
X197500000Y-114500000D03*
D12*
X202580000Y-114500000D03*
%TD*%
D10*
%TO.C,D35*%
X66500000Y-95310000D03*
D11*
X66500000Y-87690000D03*
%TD*%
D10*
%TO.C,D28*%
X142500000Y-74620000D03*
D11*
X142500000Y-67000000D03*
%TD*%
D10*
%TO.C,D61*%
X219420000Y-140810000D03*
D11*
X219420000Y-133190000D03*
%TD*%
D12*
%TO.C,SW65*%
X261920000Y-119000000D03*
D13*
X267000000Y-119000000D03*
D12*
X272080000Y-119000000D03*
%TD*%
D10*
%TO.C,D59*%
X79000000Y-139120000D03*
D11*
X79000000Y-131500000D03*
%TD*%
D12*
%TO.C,SW14*%
X70920000Y-50500000D03*
D13*
X76000000Y-50500000D03*
D12*
X81080000Y-50500000D03*
%TD*%
D10*
%TO.C,D57*%
X295500000Y-140310000D03*
D11*
X295500000Y-132690000D03*
%TD*%
D10*
%TO.C,D44*%
X242500000Y-95120000D03*
D11*
X242500000Y-87500000D03*
%TD*%
D12*
%TO.C,SW16*%
X109000000Y-50500000D03*
D13*
X114080000Y-50500000D03*
D12*
X119160000Y-50500000D03*
%TD*%
%TO.C,SW54*%
X211420000Y-114500000D03*
D13*
X216500000Y-114500000D03*
D12*
X221580000Y-114500000D03*
%TD*%
%TO.C,SW8*%
X165920000Y-29000000D03*
D13*
X171000000Y-29000000D03*
D12*
X176080000Y-29000000D03*
%TD*%
D10*
%TO.C,D21*%
X104500000Y-53310000D03*
D11*
X104500000Y-45690000D03*
%TD*%
D10*
%TO.C,D5*%
X161500000Y-31810000D03*
D11*
X161500000Y-24190000D03*
%TD*%
D12*
%TO.C,SW24*%
X51820000Y-72000000D03*
D13*
X56900000Y-72000000D03*
D12*
X61980000Y-72000000D03*
%TD*%
%TO.C,SW48*%
X97420000Y-114500000D03*
D13*
X102500000Y-114500000D03*
D12*
X107580000Y-114500000D03*
%TD*%
%TO.C,SW41*%
X165820000Y-93000000D03*
D13*
X170900000Y-93000000D03*
D12*
X175980000Y-93000000D03*
%TD*%
%TO.C,SW19*%
X165920000Y-50500000D03*
D13*
X171000000Y-50500000D03*
D12*
X176080000Y-50500000D03*
%TD*%
%TO.C,SW17*%
X128000000Y-50500000D03*
D13*
X133080000Y-50500000D03*
D12*
X138160000Y-50500000D03*
%TD*%
%TO.C,SW10*%
X203920000Y-29000000D03*
D13*
X209000000Y-29000000D03*
D12*
X214080000Y-29000000D03*
%TD*%
%TO.C,SW32*%
X203920000Y-72000000D03*
D13*
X209000000Y-72000000D03*
D12*
X214080000Y-72000000D03*
%TD*%
D10*
%TO.C,D54*%
X249500000Y-116620000D03*
D11*
X249500000Y-109000000D03*
%TD*%
D12*
%TO.C,SW20*%
X184920000Y-50500000D03*
D13*
X190000000Y-50500000D03*
D12*
X195080000Y-50500000D03*
%TD*%
%TO.C,SW40*%
X146920000Y-93000000D03*
D13*
X152000000Y-93000000D03*
D12*
X157080000Y-93000000D03*
%TD*%
%TO.C,SW64*%
X261920000Y-138000000D03*
D13*
X267000000Y-138000000D03*
D12*
X272080000Y-138000000D03*
%TD*%
%TO.C,SW6*%
X127920000Y-29000000D03*
D13*
X133000000Y-29000000D03*
D12*
X138080000Y-29000000D03*
%TD*%
D10*
%TO.C,D64*%
X277000000Y-140310000D03*
D11*
X277000000Y-132690000D03*
%TD*%
D10*
%TO.C,D10*%
X199500000Y-31810000D03*
D11*
X199500000Y-24190000D03*
%TD*%
D12*
%TO.C,SW63*%
X242920000Y-138080000D03*
D13*
X248000000Y-138080000D03*
D12*
X253080000Y-138080000D03*
%TD*%
D10*
%TO.C,D40*%
X161500000Y-95810000D03*
D11*
X161500000Y-88190000D03*
%TD*%
D10*
%TO.C,D50*%
X169000000Y-117310000D03*
D11*
X169000000Y-109690000D03*
%TD*%
D12*
%TO.C,SW12*%
X27420000Y-50500000D03*
D13*
X32500000Y-50500000D03*
D12*
X37580000Y-50500000D03*
%TD*%
%TO.C,SW46*%
X58420000Y-114500000D03*
D13*
X63500000Y-114500000D03*
D12*
X68580000Y-114500000D03*
%TD*%
%TO.C,SW7*%
X146920000Y-29000000D03*
D13*
X152000000Y-29000000D03*
D12*
X157080000Y-29000000D03*
%TD*%
D10*
%TO.C,D8*%
X42000000Y-31310000D03*
D11*
X42000000Y-23690000D03*
%TD*%
D10*
%TO.C,D56*%
X60000000Y-139310000D03*
D11*
X60000000Y-131690000D03*
%TD*%
D10*
%TO.C,D2*%
X104500000Y-31310000D03*
D11*
X104500000Y-23690000D03*
%TD*%
D12*
%TO.C,SW62*%
X223880000Y-138080000D03*
D13*
X228960000Y-138080000D03*
D12*
X234040000Y-138080000D03*
%TD*%
%TO.C,SW5*%
X108920000Y-29000000D03*
D13*
X114000000Y-29000000D03*
D12*
X119080000Y-29000000D03*
%TD*%
D10*
%TO.C,D39*%
X142500000Y-95620000D03*
D11*
X142500000Y-88000000D03*
%TD*%
D10*
%TO.C,D48*%
X131000000Y-117120000D03*
D11*
X131000000Y-109500000D03*
%TD*%
D12*
%TO.C,SW23*%
X27420000Y-72000000D03*
D13*
X32500000Y-72000000D03*
D12*
X37580000Y-72000000D03*
%TD*%
D10*
%TO.C,D18*%
X199500000Y-53000000D03*
D11*
X199500000Y-45380000D03*
%TD*%
D12*
%TO.C,SW50*%
X135420000Y-114500000D03*
D13*
X140500000Y-114500000D03*
D12*
X145580000Y-114500000D03*
%TD*%
%TO.C,SW21*%
X203730000Y-50540000D03*
D13*
X208810000Y-50540000D03*
D12*
X213890000Y-50540000D03*
%TD*%
D10*
%TO.C,D1*%
X85500000Y-31810000D03*
D11*
X85500000Y-24190000D03*
%TD*%
D10*
%TO.C,D33*%
X244000000Y-74620000D03*
D11*
X244000000Y-67000000D03*
%TD*%
D12*
%TO.C,SW51*%
X154420000Y-114500000D03*
D13*
X159500000Y-114500000D03*
D12*
X164580000Y-114500000D03*
%TD*%
D10*
%TO.C,D15*%
X142500000Y-53310000D03*
D11*
X142500000Y-45690000D03*
%TD*%
D10*
%TO.C,D9*%
X66500000Y-31810000D03*
D11*
X66500000Y-24190000D03*
%TD*%
D12*
%TO.C,SW59*%
X64420000Y-136500000D03*
D13*
X69500000Y-136500000D03*
D12*
X74580000Y-136500000D03*
%TD*%
D10*
%TO.C,D51*%
X188000000Y-117120000D03*
D11*
X188000000Y-109500000D03*
%TD*%
D10*
%TO.C,D63*%
X257500000Y-140890000D03*
D11*
X257500000Y-133270000D03*
%TD*%
D12*
%TO.C,SW26*%
X89920000Y-72000000D03*
D13*
X95000000Y-72000000D03*
D12*
X100080000Y-72000000D03*
%TD*%
%TO.C,SW27*%
X108920000Y-72000000D03*
D13*
X114000000Y-72000000D03*
D12*
X119080000Y-72000000D03*
%TD*%
D10*
%TO.C,D3*%
X123500000Y-31810000D03*
D11*
X123500000Y-24190000D03*
%TD*%
D12*
%TO.C,SW33*%
X228920000Y-72000000D03*
D13*
X234000000Y-72000000D03*
D12*
X239080000Y-72000000D03*
%TD*%
D10*
%TO.C,D23*%
X42000000Y-74000000D03*
D11*
X42000000Y-66380000D03*
%TD*%
D10*
%TO.C,D17*%
X180500000Y-53310000D03*
D11*
X180500000Y-45690000D03*
%TD*%
D10*
%TO.C,D25*%
X85500000Y-74810000D03*
D11*
X85500000Y-67190000D03*
%TD*%
D10*
%TO.C,D22*%
X123500000Y-53310000D03*
D11*
X123500000Y-45690000D03*
%TD*%
D10*
%TO.C,D37*%
X104500000Y-95810000D03*
D11*
X104500000Y-88190000D03*
%TD*%
D12*
%TO.C,SW36*%
X70920000Y-93000000D03*
D13*
X76000000Y-93000000D03*
D12*
X81080000Y-93000000D03*
%TD*%
D10*
%TO.C,D49*%
X149500000Y-117120000D03*
D11*
X149500000Y-109500000D03*
%TD*%
D12*
%TO.C,SW57*%
X280920000Y-138000000D03*
D13*
X286000000Y-138000000D03*
D12*
X291080000Y-138000000D03*
%TD*%
%TO.C,SW3*%
X70920000Y-29000000D03*
D13*
X76000000Y-29000000D03*
D12*
X81080000Y-29000000D03*
%TD*%
D10*
%TO.C,D14*%
X85500000Y-53310000D03*
D11*
X85500000Y-45690000D03*
%TD*%
D12*
%TO.C,SW38*%
X108920000Y-93000000D03*
D13*
X114000000Y-93000000D03*
D12*
X119080000Y-93000000D03*
%TD*%
%TO.C,SW42*%
X184920000Y-93000000D03*
D13*
X190000000Y-93000000D03*
D12*
X195080000Y-93000000D03*
%TD*%
%TO.C,SW28*%
X127920000Y-72000000D03*
D13*
X133000000Y-72000000D03*
D12*
X138080000Y-72000000D03*
%TD*%
D10*
%TO.C,D52*%
X207000000Y-117120000D03*
D11*
X207000000Y-109500000D03*
%TD*%
D10*
%TO.C,D55*%
X42000000Y-117310000D03*
D11*
X42000000Y-109690000D03*
%TD*%
D12*
%TO.C,SW15*%
X89920000Y-50500000D03*
D13*
X95000000Y-50500000D03*
D12*
X100080000Y-50500000D03*
%TD*%
D10*
%TO.C,D36*%
X85500000Y-95810000D03*
D11*
X85500000Y-88190000D03*
%TD*%
D10*
%TO.C,D34*%
X42500000Y-95310000D03*
D11*
X42500000Y-87690000D03*
%TD*%
D12*
%TO.C,SW1*%
X27420000Y-29000000D03*
D13*
X32500000Y-29000000D03*
D12*
X37580000Y-29000000D03*
%TD*%
D10*
%TO.C,D12*%
X43500000Y-53000000D03*
D11*
X43500000Y-45380000D03*
%TD*%
D10*
%TO.C,D60*%
X150000000Y-138310000D03*
D11*
X150000000Y-130690000D03*
%TD*%
D12*
%TO.C,SW45*%
X27420000Y-114500000D03*
D13*
X32500000Y-114500000D03*
D12*
X37580000Y-114500000D03*
%TD*%
%TO.C,SW31*%
X184870000Y-72000000D03*
D13*
X189950000Y-72000000D03*
D12*
X195030000Y-72000000D03*
%TD*%
D10*
%TO.C,D16*%
X161500000Y-53500000D03*
D11*
X161500000Y-45880000D03*
%TD*%
D12*
%TO.C,SW56*%
X45400000Y-136540000D03*
D13*
X50480000Y-136540000D03*
D12*
X55560000Y-136540000D03*
%TD*%
%TO.C,SW37*%
X89920000Y-93000000D03*
D13*
X95000000Y-93000000D03*
D12*
X100080000Y-93000000D03*
%TD*%
%TO.C,SW35*%
X51840000Y-93000000D03*
D13*
X56920000Y-93000000D03*
D12*
X62000000Y-93000000D03*
%TD*%
D10*
%TO.C,D58*%
X40500000Y-139310000D03*
D11*
X40500000Y-131690000D03*
%TD*%
D12*
%TO.C,SW60*%
X135420000Y-135500000D03*
D13*
X140500000Y-135500000D03*
D12*
X145580000Y-135500000D03*
%TD*%
%TO.C,SW58*%
X26420000Y-136500000D03*
D13*
X31500000Y-136500000D03*
D12*
X36580000Y-136500000D03*
%TD*%
D10*
%TO.C,D24*%
X66000000Y-74810000D03*
D11*
X66000000Y-67190000D03*
%TD*%
D10*
%TO.C,D31*%
X199500000Y-74620000D03*
D11*
X199500000Y-67000000D03*
%TD*%
D10*
%TO.C,D4*%
X142500000Y-31810000D03*
D11*
X142500000Y-24190000D03*
%TD*%
D10*
%TO.C,D20*%
X243500000Y-52810000D03*
D11*
X243500000Y-45190000D03*
%TD*%
D12*
%TO.C,SW47*%
X78420000Y-114500000D03*
D13*
X83500000Y-114500000D03*
D12*
X88580000Y-114500000D03*
%TD*%
D10*
%TO.C,D7*%
X243500000Y-31810000D03*
D11*
X243500000Y-24190000D03*
%TD*%
D10*
%TO.C,D26*%
X104500000Y-74620000D03*
D11*
X104500000Y-67000000D03*
%TD*%
D10*
%TO.C,D53*%
X226000000Y-117120000D03*
D11*
X226000000Y-109500000D03*
%TD*%
D12*
%TO.C,SW30*%
X165920000Y-72000000D03*
D13*
X171000000Y-72000000D03*
D12*
X176080000Y-72000000D03*
%TD*%
%TO.C,SW22*%
X228920000Y-50040000D03*
D13*
X234000000Y-50040000D03*
D12*
X239080000Y-50040000D03*
%TD*%
%TO.C,SW39*%
X127920000Y-93000000D03*
D13*
X133000000Y-93000000D03*
D12*
X138080000Y-93000000D03*
%TD*%
D10*
%TO.C,D38*%
X123500000Y-95810000D03*
D11*
X123500000Y-88190000D03*
%TD*%
D12*
%TO.C,SW29*%
X146920000Y-72000000D03*
D13*
X152000000Y-72000000D03*
D12*
X157080000Y-72000000D03*
%TD*%
D10*
%TO.C,D11*%
X218500000Y-31810000D03*
D11*
X218500000Y-24190000D03*
%TD*%
D10*
%TO.C,D29*%
X161500000Y-74810000D03*
D11*
X161500000Y-67190000D03*
%TD*%
D12*
%TO.C,SW11*%
X228920000Y-29000000D03*
D13*
X234000000Y-29000000D03*
D12*
X239080000Y-29000000D03*
%TD*%
D10*
%TO.C,D65*%
X276500000Y-121810000D03*
D11*
X276500000Y-114190000D03*
%TD*%
D10*
%TO.C,D30*%
X180500000Y-74310000D03*
D11*
X180500000Y-66690000D03*
%TD*%
D12*
%TO.C,SW49*%
X116420000Y-114500000D03*
D13*
X121500000Y-114500000D03*
D12*
X126580000Y-114500000D03*
%TD*%
%TO.C,SW34*%
X27420000Y-93000000D03*
D13*
X32500000Y-93000000D03*
D12*
X37580000Y-93000000D03*
%TD*%
D10*
%TO.C,D66*%
X265000000Y-94810000D03*
D11*
X265000000Y-87190000D03*
%TD*%
D10*
%TO.C,D41*%
X180500000Y-95620000D03*
D11*
X180500000Y-88000000D03*
%TD*%
D10*
%TO.C,D32*%
X218500000Y-74810000D03*
D11*
X218500000Y-67190000D03*
%TD*%
D12*
%TO.C,SW4*%
X89920000Y-29000000D03*
D13*
X95000000Y-29000000D03*
D12*
X100080000Y-29000000D03*
%TD*%
%TO.C,SW61*%
X204840000Y-138000000D03*
D13*
X209920000Y-138000000D03*
D12*
X215000000Y-138000000D03*
%TD*%
D14*
%TO.C,A1*%
X261720000Y-20640000D03*
D11*
X261720000Y-23180000D03*
D15*
X261720000Y-25720000D03*
D11*
X261720000Y-28260000D03*
X261720000Y-30800000D03*
X261720000Y-33340000D03*
X261720000Y-35880000D03*
D15*
X261720000Y-38420000D03*
D11*
X261720000Y-40960000D03*
X261720000Y-43500000D03*
X261720000Y-46040000D03*
X261720000Y-48580000D03*
D15*
X261720000Y-51120000D03*
D11*
X261720000Y-53660000D03*
X261720000Y-56200000D03*
X261720000Y-58740000D03*
X261720000Y-61280000D03*
D15*
X261720000Y-63820000D03*
D11*
X261720000Y-66360000D03*
X261720000Y-68900000D03*
X279500000Y-68900000D03*
X279500000Y-66360000D03*
D16*
X279500000Y-63820000D03*
D11*
X279500000Y-61280000D03*
X279500000Y-58740000D03*
X279500000Y-56200000D03*
X279500000Y-53660000D03*
D16*
X279500000Y-51120000D03*
D11*
X279500000Y-48580000D03*
X279500000Y-46040000D03*
X279500000Y-43500000D03*
X279500000Y-40960000D03*
D16*
X279500000Y-38420000D03*
D11*
X279500000Y-35880000D03*
X279500000Y-33340000D03*
X279500000Y-30800000D03*
X279500000Y-28260000D03*
D16*
X279500000Y-25720000D03*
D11*
X279500000Y-23180000D03*
X279500000Y-20640000D03*
%TD*%
M02*
