M48
; DRILL file KiCad 10.0.5 date 2026-08-07T15:51:33
; FORMAT={-:-/ absolute / metric / decimal}
; #@! TF.CreationDate,2026-08-07T15:51:33+05:30
; #@! TF.GenerationSoftware,Kicad,Pcbnew,10.0.5
; #@! TF.FileFunction,NonPlated,1,2,NPTH
FMAT,2
METRIC
; #@! TA.AperFunction,NonPlated,NPTH,ComponentDrill
T1C1.750
; #@! TA.AperFunction,NonPlated,NPTH,ComponentDrill
T2C3.988
%
G90
G05
T1
X26.42Y-136.5
X27.42Y-29.0
X27.42Y-50.5
X27.42Y-72.0
X27.42Y-93.0
X27.42Y-114.5
X36.58Y-136.5
X37.58Y-29.0
X37.58Y-50.5
X37.58Y-72.0
X37.58Y-93.0
X37.58Y-114.5
X45.4Y-136.54
X51.74Y-29.0
X51.82Y-72.0
X51.84Y-93.0
X51.92Y-50.5
X55.56Y-136.54
X58.42Y-114.5
X61.9Y-29.0
X61.98Y-72.0
X62.0Y-93.0
X62.08Y-50.5
X64.42Y-136.5
X68.58Y-114.5
X70.92Y-29.0
X70.92Y-50.5
X70.92Y-72.0
X70.92Y-93.0
X74.58Y-136.5
X78.42Y-114.5
X81.08Y-29.0
X81.08Y-50.5
X81.08Y-72.0
X81.08Y-93.0
X88.58Y-114.5
X89.92Y-29.0
X89.92Y-50.5
X89.92Y-72.0
X89.92Y-93.0
X97.42Y-114.5
X100.08Y-29.0
X100.08Y-50.5
X100.08Y-72.0
X100.08Y-93.0
X107.58Y-114.5
X108.92Y-29.0
X108.92Y-72.0
X108.92Y-93.0
X109.0Y-50.5
X116.42Y-114.5
X119.08Y-29.0
X119.08Y-72.0
X119.08Y-93.0
X119.16Y-50.5
X126.58Y-114.5
X127.92Y-29.0
X127.92Y-72.0
X127.92Y-93.0
X128.0Y-50.5
X135.42Y-114.5
X135.42Y-135.5
X138.08Y-29.0
X138.08Y-72.0
X138.08Y-93.0
X138.16Y-50.5
X145.58Y-114.5
X145.58Y-135.5
X146.92Y-29.0
X146.92Y-50.5
X146.92Y-72.0
X146.92Y-93.0
X154.42Y-114.5
X157.08Y-29.0
X157.08Y-50.5
X157.08Y-72.0
X157.08Y-93.0
X164.58Y-114.5
X165.82Y-93.0
X165.92Y-29.0
X165.92Y-50.5
X165.92Y-72.0
X173.42Y-114.5
X175.98Y-93.0
X176.08Y-29.0
X176.08Y-50.5
X176.08Y-72.0
X183.58Y-114.5
X184.87Y-72.0
X184.92Y-29.0
X184.92Y-50.5
X184.92Y-93.0
X192.42Y-114.5
X195.03Y-72.0
X195.08Y-29.0
X195.08Y-50.5
X195.08Y-93.0
X202.58Y-114.5
X203.73Y-50.54
X203.92Y-29.0
X203.92Y-72.0
X203.92Y-93.0
X204.84Y-138.0
X211.42Y-114.5
X213.89Y-50.54
X214.08Y-29.0
X214.08Y-72.0
X214.08Y-93.0
X215.0Y-138.0
X221.58Y-114.5
X223.88Y-138.08
X227.92Y-92.5
X228.92Y-29.0
X228.92Y-50.04
X228.92Y-72.0
X234.04Y-138.08
X234.92Y-114.0
X238.08Y-92.5
X239.08Y-29.0
X239.08Y-50.04
X239.08Y-72.0
X242.92Y-138.08
X245.08Y-114.0
X250.42Y-92.5
X253.08Y-138.08
X260.58Y-92.5
X261.92Y-119.0
X261.92Y-138.0
X272.08Y-119.0
X272.08Y-138.0
X280.92Y-138.0
X291.08Y-138.0
T2
X31.5Y-136.5
X32.5Y-29.0
X32.5Y-50.5
X32.5Y-72.0
X32.5Y-93.0
X32.5Y-114.5
X50.48Y-136.54
X56.82Y-29.0
X56.9Y-72.0
X56.92Y-93.0
X57.0Y-50.5
X63.5Y-114.5
X69.5Y-136.5
X76.0Y-29.0
X76.0Y-50.5
X76.0Y-72.0
X76.0Y-93.0
X83.5Y-114.5
X90.494Y-143.755
X95.0Y-29.0
X95.0Y-50.5
X95.0Y-72.0
X95.0Y-93.0
X102.5Y-114.5
X114.0Y-29.0
X114.0Y-72.0
X114.0Y-93.0
X114.08Y-50.5
X121.5Y-114.5
X133.0Y-29.0
X133.0Y-72.0
X133.0Y-93.0
X133.08Y-50.5
X140.5Y-114.5
X140.5Y-135.5
X152.0Y-29.0
X152.0Y-50.5
X152.0Y-72.0
X152.0Y-93.0
X159.5Y-114.5
X170.9Y-93.0
X171.0Y-29.0
X171.0Y-50.5
X171.0Y-72.0
X178.5Y-114.5
X189.95Y-72.0
X190.0Y-29.0
X190.0Y-50.5
X190.0Y-93.0
X190.506Y-143.755
X197.5Y-114.5
X208.81Y-50.54
X209.0Y-29.0
X209.0Y-72.0
X209.0Y-93.0
X209.92Y-138.0
X216.5Y-114.5
X228.96Y-138.08
X233.0Y-92.5
X234.0Y-29.0
X234.0Y-50.04
X234.0Y-72.0
X240.0Y-114.0
X248.0Y-138.08
X255.5Y-92.5
X267.0Y-119.0
X267.0Y-138.0
X286.0Y-138.0
M30
