%TF.GenerationSoftware,KiCad,Pcbnew,10.0.5*%
%TF.CreationDate,2026-08-07T15:51:08+05:30*%
%TF.ProjectId,my keeb,6d79206b-6565-4622-9e6b-696361645f70,rev?*%
%TF.SameCoordinates,Original*%
%TF.FileFunction,Copper,L1,Top*%
%TF.FilePolarity,Positive*%
%FSLAX46Y46*%
G04 Gerber Fmt 4.6, Leading zero omitted, Abs format (unit mm)*
G04 Created by KiCad (PCBNEW 10.0.5) date 2026-08-07 15:51:08*
%MOMM*%
%LPD*%
G01*
G04 APERTURE LIST*
G04 Aperture macros list*
%AMRoundRect*
0 Rectangle with rounded corners*
0 $1 Rounding radius*
0 $2 $3 $4 $5 $6 $7 $8 $9 X,Y pos of 4 corners*
0 Add a 4 corners polygon primitive as box body*
4,1,4,$2,$3,$4,$5,$6,$7,$8,$9,$2,$3,0*
0 Add four circle primitives for the rounded corners*
1,1,$1+$1,$2,$3*
1,1,$1+$1,$4,$5*
1,1,$1+$1,$6,$7*
1,1,$1+$1,$8,$9*
0 Add four rect primitives between the rounded corners*
20,1,$1+$1,$2,$3,$4,$5,0*
20,1,$1+$1,$4,$5,$6,$7,0*
20,1,$1+$1,$6,$7,$8,$9,0*
20,1,$1+$1,$8,$9,$2,$3,0*%
%AMFreePoly0*
4,1,37,0.603843,0.796157,0.639018,0.796157,0.711114,0.766294,0.766294,0.711114,0.796157,0.639018,0.796157,0.603843,0.800000,0.600000,0.800000,-0.600000,0.796157,-0.603843,0.796157,-0.639018,0.766294,-0.711114,0.711114,-0.766294,0.639018,-0.796157,0.603843,-0.796157,0.600000,-0.800000,0.000000,-0.800000,0.000000,-0.796148,-0.078414,-0.796148,-0.232228,-0.765552,-0.377117,-0.705537,
-0.507515,-0.618408,-0.618408,-0.507515,-0.705537,-0.377117,-0.765552,-0.232228,-0.796148,-0.078414,-0.796148,0.078414,-0.765552,0.232228,-0.705537,0.377117,-0.618408,0.507515,-0.507515,0.618408,-0.377117,0.705537,-0.232228,0.765552,-0.078414,0.796148,0.000000,0.796148,0.000000,0.800000,0.600000,0.800000,0.603843,0.796157,0.603843,0.796157,$1*%
%AMFreePoly1*
4,1,37,0.000000,0.796148,0.078414,0.796148,0.232228,0.765552,0.377117,0.705537,0.507515,0.618408,0.618408,0.507515,0.705537,0.377117,0.765552,0.232228,0.796148,0.078414,0.796148,-0.078414,0.765552,-0.232228,0.705537,-0.377117,0.618408,-0.507515,0.507515,-0.618408,0.377117,-0.705537,0.232228,-0.765552,0.078414,-0.796148,0.000000,-0.796148,0.000000,-0.800000,-0.600000,-0.800000,
-0.603843,-0.796157,-0.639018,-0.796157,-0.711114,-0.766294,-0.766294,-0.711114,-0.796157,-0.639018,-0.796157,-0.603843,-0.800000,-0.600000,-0.800000,0.600000,-0.796157,0.603843,-0.796157,0.639018,-0.766294,0.711114,-0.711114,0.766294,-0.639018,0.796157,-0.603843,0.796157,-0.600000,0.800000,0.000000,0.800000,0.000000,0.796148,0.000000,0.796148,$1*%
G04 Aperture macros list end*
%TA.AperFunction,ComponentPad*%
%ADD10RoundRect,0.250000X0.550000X-0.550000X0.550000X0.550000X-0.550000X0.550000X-0.550000X-0.550000X0*%
%TD*%
%TA.AperFunction,ComponentPad*%
%ADD11C,1.600000*%
%TD*%
%TA.AperFunction,ComponentPad*%
%ADD12C,2.300000*%
%TD*%
%TA.AperFunction,ComponentPad*%
%ADD13C,4.000000*%
%TD*%
%TA.AperFunction,ComponentPad*%
%ADD14RoundRect,0.200000X-0.600000X-0.600000X0.600000X-0.600000X0.600000X0.600000X-0.600000X0.600000X0*%
%TD*%
%TA.AperFunction,ComponentPad*%
%ADD15FreePoly0,0.000000*%
%TD*%
%TA.AperFunction,ComponentPad*%
%ADD16FreePoly1,0.000000*%
%TD*%
%TA.AperFunction,Conductor*%
%ADD17C,0.200000*%
%TD*%
G04 APERTURE END LIST*
D10*
%TO.P,D47,1,K_1*%
%TO.N,/row 5*%
X112000000Y-117120000D03*
D11*
%TO.P,D47,2,A_2*%
%TO.N,Net-(D47-A)*%
X112000000Y-109500000D03*
%TD*%
D12*
%TO.P,SW9,1,1_1*%
%TO.N,/col 9*%
X186190000Y-26460000D03*
%TO.P,SW9,2,2_2*%
%TO.N,Net-(D10-A)*%
X192540000Y-23920000D03*
%TD*%
D10*
%TO.P,D43,1,K_1*%
%TO.N,/row 4*%
X218500000Y-95810000D03*
D11*
%TO.P,D43,2,A_2*%
%TO.N,Net-(D43-A)*%
X218500000Y-88190000D03*
%TD*%
D10*
%TO.P,D42,1,K_1*%
%TO.N,/row 4*%
X199500000Y-95310000D03*
D11*
%TO.P,D42,2,A_2*%
%TO.N,Net-(D42-A)*%
X199500000Y-87690000D03*
%TD*%
D12*
%TO.P,SW66,1,1_1*%
%TO.N,/col 10*%
X251690000Y-89960000D03*
%TO.P,SW66,2,2_2*%
%TO.N,Net-(D66-A)*%
X258040000Y-87420000D03*
%TD*%
D10*
%TO.P,D27,1,K_1*%
%TO.N,/row 3*%
X123500000Y-74620000D03*
D11*
%TO.P,D27,2,A_2*%
%TO.N,Net-(D27-A)*%
X123500000Y-67000000D03*
%TD*%
D12*
%TO.P,SW18,1,1_1*%
%TO.N,/col 7*%
X148190000Y-47960000D03*
%TO.P,SW18,2,2_2*%
%TO.N,Net-(D16-A)*%
X154540000Y-45420000D03*
%TD*%
D10*
%TO.P,D62,1,K_1*%
%TO.N,/row 6*%
X238460000Y-140390000D03*
D11*
%TO.P,D62,2,A_2*%
%TO.N,Net-(D62-A)*%
X238460000Y-132770000D03*
%TD*%
D13*
%TO.P,S1,*%
%TO.N,*%
X90493750Y-128515000D03*
X190506250Y-128515000D03*
%TD*%
D12*
%TO.P,SW2,1,1_1*%
%TO.N,/col 2*%
X53010000Y-26460000D03*
%TO.P,SW2,2,2_2*%
%TO.N,Net-(D9-A)*%
X59360000Y-23920000D03*
%TD*%
D10*
%TO.P,D19,1,K_1*%
%TO.N,/row 2*%
X218500000Y-53000000D03*
D11*
%TO.P,D19,2,A_2*%
%TO.N,Net-(D19-A)*%
X218500000Y-45380000D03*
%TD*%
D12*
%TO.P,SW55,1,1_1*%
%TO.N,/col 11*%
X236190000Y-111460000D03*
%TO.P,SW55,2,2_2*%
%TO.N,Net-(D54-A)*%
X242540000Y-108920000D03*
%TD*%
%TO.P,SW44,1,1_1*%
%TO.N,/col 11*%
X229190000Y-89960000D03*
%TO.P,SW44,2,2_2*%
%TO.N,Net-(D44-A)*%
X235540000Y-87420000D03*
%TD*%
D10*
%TO.P,D45,1,K_1*%
%TO.N,/row 5*%
X73000000Y-117310000D03*
D11*
%TO.P,D45,2,A_2*%
%TO.N,Net-(D45-A)*%
X73000000Y-109690000D03*
%TD*%
D10*
%TO.P,D46,1,K_1*%
%TO.N,/row 5*%
X92500000Y-117310000D03*
D11*
%TO.P,D46,2,A_2*%
%TO.N,Net-(D46-A)*%
X92500000Y-109690000D03*
%TD*%
D12*
%TO.P,SW13,1,1_1*%
%TO.N,/col 2*%
X53190000Y-47960000D03*
%TO.P,SW13,2,2_2*%
%TO.N,Net-(D13-A)*%
X59540000Y-45420000D03*
%TD*%
%TO.P,SW43,1,1_1*%
%TO.N,/col 10*%
X205190000Y-90460000D03*
%TO.P,SW43,2,2_2*%
%TO.N,Net-(D43-A)*%
X211540000Y-87920000D03*
%TD*%
D10*
%TO.P,D6,1,K_1*%
%TO.N,/row 1*%
X180500000Y-31810000D03*
D11*
%TO.P,D6,2,A_2*%
%TO.N,Net-(D6-A)*%
X180500000Y-24190000D03*
%TD*%
D12*
%TO.P,SW25,1,1_1*%
%TO.N,/col 3*%
X72190000Y-69460000D03*
%TO.P,SW25,2,2_2*%
%TO.N,Net-(D25-A)*%
X78540000Y-66920000D03*
%TD*%
%TO.P,SW52,1,1_1*%
%TO.N,/col 8*%
X174690000Y-111960000D03*
%TO.P,SW52,2,2_2*%
%TO.N,Net-(D51-A)*%
X181040000Y-109420000D03*
%TD*%
D10*
%TO.P,D13,1,K_1*%
%TO.N,/row 2*%
X66500000Y-53310000D03*
D11*
%TO.P,D13,2,A_2*%
%TO.N,Net-(D13-A)*%
X66500000Y-45690000D03*
%TD*%
D12*
%TO.P,SW53,1,1_1*%
%TO.N,/col 9*%
X193690000Y-111960000D03*
%TO.P,SW53,2,2_2*%
%TO.N,Net-(D52-A)*%
X200040000Y-109420000D03*
%TD*%
D10*
%TO.P,D35,1,K_1*%
%TO.N,/row 4*%
X66500000Y-95310000D03*
D11*
%TO.P,D35,2,A_2*%
%TO.N,Net-(D35-A)*%
X66500000Y-87690000D03*
%TD*%
D10*
%TO.P,D28,1,K_1*%
%TO.N,/row 3*%
X142500000Y-74620000D03*
D11*
%TO.P,D28,2,A_2*%
%TO.N,Net-(D28-A)*%
X142500000Y-67000000D03*
%TD*%
D10*
%TO.P,D61,1,K_1*%
%TO.N,/row 6*%
X219420000Y-140810000D03*
D11*
%TO.P,D61,2,A_2*%
%TO.N,Net-(D61-A)*%
X219420000Y-133190000D03*
%TD*%
D12*
%TO.P,SW65,1,1_1*%
%TO.N,/col 9*%
X263190000Y-116460000D03*
%TO.P,SW65,2,2_2*%
%TO.N,Net-(D65-A)*%
X269540000Y-113920000D03*
%TD*%
D10*
%TO.P,D59,1,K_1*%
%TO.N,/row 6*%
X79000000Y-139120000D03*
D11*
%TO.P,D59,2,A_2*%
%TO.N,Net-(D59-A)*%
X79000000Y-131500000D03*
%TD*%
D12*
%TO.P,SW14,1,1_1*%
%TO.N,/col 3*%
X72190000Y-47960000D03*
%TO.P,SW14,2,2_2*%
%TO.N,Net-(D14-A)*%
X78540000Y-45420000D03*
%TD*%
D10*
%TO.P,D57,1,K_1*%
%TO.N,/row 6*%
X295500000Y-140310000D03*
D11*
%TO.P,D57,2,A_2*%
%TO.N,Net-(D57-A)*%
X295500000Y-132690000D03*
%TD*%
D10*
%TO.P,D44,1,K_1*%
%TO.N,/row 4*%
X242500000Y-95120000D03*
D11*
%TO.P,D44,2,A_2*%
%TO.N,Net-(D44-A)*%
X242500000Y-87500000D03*
%TD*%
D12*
%TO.P,SW16,1,1_1*%
%TO.N,/col 5*%
X110270000Y-47960000D03*
%TO.P,SW16,2,2_2*%
%TO.N,Net-(D22-A)*%
X116620000Y-45420000D03*
%TD*%
%TO.P,SW54,1,1_1*%
%TO.N,/col 10*%
X212690000Y-111960000D03*
%TO.P,SW54,2,2_2*%
%TO.N,Net-(D53-A)*%
X219040000Y-109420000D03*
%TD*%
%TO.P,SW8,1,1_1*%
%TO.N,/col 8*%
X167190000Y-26460000D03*
%TO.P,SW8,2,2_2*%
%TO.N,Net-(D6-A)*%
X173540000Y-23920000D03*
%TD*%
D10*
%TO.P,D21,1,K_1*%
%TO.N,/row 2*%
X104500000Y-53310000D03*
D11*
%TO.P,D21,2,A_2*%
%TO.N,Net-(D21-A)*%
X104500000Y-45690000D03*
%TD*%
D10*
%TO.P,D5,1,K_1*%
%TO.N,/row 1*%
X161500000Y-31810000D03*
D11*
%TO.P,D5,2,A_2*%
%TO.N,Net-(D5-A)*%
X161500000Y-24190000D03*
%TD*%
D12*
%TO.P,SW24,1,1_1*%
%TO.N,/col 2*%
X53090000Y-69460000D03*
%TO.P,SW24,2,2_2*%
%TO.N,Net-(D24-A)*%
X59440000Y-66920000D03*
%TD*%
%TO.P,SW48,1,1_1*%
%TO.N,/col 4*%
X98690000Y-111960000D03*
%TO.P,SW48,2,2_2*%
%TO.N,Net-(D47-A)*%
X105040000Y-109420000D03*
%TD*%
%TO.P,SW41,1,1_1*%
%TO.N,/col 8*%
X167090000Y-90460000D03*
%TO.P,SW41,2,2_2*%
%TO.N,Net-(D41-A)*%
X173440000Y-87920000D03*
%TD*%
%TO.P,SW19,1,1_1*%
%TO.N,/col 8*%
X167190000Y-47960000D03*
%TO.P,SW19,2,2_2*%
%TO.N,Net-(D17-A)*%
X173540000Y-45420000D03*
%TD*%
%TO.P,SW17,1,1_1*%
%TO.N,/col 6*%
X129270000Y-47960000D03*
%TO.P,SW17,2,2_2*%
%TO.N,Net-(D15-A)*%
X135620000Y-45420000D03*
%TD*%
%TO.P,SW10,1,1_1*%
%TO.N,/col 10*%
X205190000Y-26460000D03*
%TO.P,SW10,2,2_2*%
%TO.N,Net-(D11-A)*%
X211540000Y-23920000D03*
%TD*%
%TO.P,SW32,1,1_1*%
%TO.N,/col 10*%
X205190000Y-69460000D03*
%TO.P,SW32,2,2_2*%
%TO.N,Net-(D32-A)*%
X211540000Y-66920000D03*
%TD*%
D10*
%TO.P,D54,1,K_1*%
%TO.N,/row 5*%
X249500000Y-116620000D03*
D11*
%TO.P,D54,2,A_2*%
%TO.N,Net-(D54-A)*%
X249500000Y-109000000D03*
%TD*%
D12*
%TO.P,SW20,1,1_1*%
%TO.N,/col 9*%
X186190000Y-47960000D03*
%TO.P,SW20,2,2_2*%
%TO.N,Net-(D18-A)*%
X192540000Y-45420000D03*
%TD*%
%TO.P,SW40,1,1_1*%
%TO.N,/col 7*%
X148190000Y-90460000D03*
%TO.P,SW40,2,2_2*%
%TO.N,Net-(D40-A)*%
X154540000Y-87920000D03*
%TD*%
%TO.P,SW64,1,1_1*%
%TO.N,/col 8*%
X263190000Y-135460000D03*
%TO.P,SW64,2,2_2*%
%TO.N,Net-(D64-A)*%
X269540000Y-132920000D03*
%TD*%
%TO.P,SW6,1,1_1*%
%TO.N,/col 6*%
X129190000Y-26460000D03*
%TO.P,SW6,2,2_2*%
%TO.N,Net-(D4-A)*%
X135540000Y-23920000D03*
%TD*%
D10*
%TO.P,D64,1,K_1*%
%TO.N,/row 6*%
X277000000Y-140310000D03*
D11*
%TO.P,D64,2,A_2*%
%TO.N,Net-(D64-A)*%
X277000000Y-132690000D03*
%TD*%
D10*
%TO.P,D10,1,K_1*%
%TO.N,/row 1*%
X199500000Y-31810000D03*
D11*
%TO.P,D10,2,A_2*%
%TO.N,Net-(D10-A)*%
X199500000Y-24190000D03*
%TD*%
D12*
%TO.P,SW63,1,1_1*%
%TO.N,/col 7*%
X244190000Y-135540000D03*
%TO.P,SW63,2,2_2*%
%TO.N,Net-(D63-A)*%
X250540000Y-133000000D03*
%TD*%
D10*
%TO.P,D40,1,K_1*%
%TO.N,/row 4*%
X161500000Y-95810000D03*
D11*
%TO.P,D40,2,A_2*%
%TO.N,Net-(D40-A)*%
X161500000Y-88190000D03*
%TD*%
D10*
%TO.P,D50,1,K_1*%
%TO.N,/row 5*%
X169000000Y-117310000D03*
D11*
%TO.P,D50,2,A_2*%
%TO.N,Net-(D50-A)*%
X169000000Y-109690000D03*
%TD*%
D12*
%TO.P,SW12,1,1_1*%
%TO.N,/col 1*%
X28690000Y-47960000D03*
%TO.P,SW12,2,2_2*%
%TO.N,Net-(D12-A)*%
X35040000Y-45420000D03*
%TD*%
%TO.P,SW46,1,1_1*%
%TO.N,/col 2*%
X59690000Y-111960000D03*
%TO.P,SW46,2,2_2*%
%TO.N,Net-(D45-A)*%
X66040000Y-109420000D03*
%TD*%
%TO.P,SW7,1,1_1*%
%TO.N,/col 7*%
X148190000Y-26460000D03*
%TO.P,SW7,2,2_2*%
%TO.N,Net-(D5-A)*%
X154540000Y-23920000D03*
%TD*%
D10*
%TO.P,D8,1,K_1*%
%TO.N,/row 1*%
X42000000Y-31310000D03*
D11*
%TO.P,D8,2,A_2*%
%TO.N,Net-(D8-A)*%
X42000000Y-23690000D03*
%TD*%
D10*
%TO.P,D56,1,K_1*%
%TO.N,/row 6*%
X60000000Y-139310000D03*
D11*
%TO.P,D56,2,A_2*%
%TO.N,Net-(D56-A)*%
X60000000Y-131690000D03*
%TD*%
D10*
%TO.P,D2,1,K_1*%
%TO.N,/row 1*%
X104500000Y-31310000D03*
D11*
%TO.P,D2,2,A_2*%
%TO.N,Net-(D2-A)*%
X104500000Y-23690000D03*
%TD*%
D12*
%TO.P,SW62,1,1_1*%
%TO.N,/col 6*%
X225150000Y-135540000D03*
%TO.P,SW62,2,2_2*%
%TO.N,Net-(D62-A)*%
X231500000Y-133000000D03*
%TD*%
%TO.P,SW5,1,1_1*%
%TO.N,/col 5*%
X110190000Y-26460000D03*
%TO.P,SW5,2,2_2*%
%TO.N,Net-(D3-A)*%
X116540000Y-23920000D03*
%TD*%
D10*
%TO.P,D39,1,K_1*%
%TO.N,/row 4*%
X142500000Y-95620000D03*
D11*
%TO.P,D39,2,A_2*%
%TO.N,Net-(D39-A)*%
X142500000Y-88000000D03*
%TD*%
D10*
%TO.P,D48,1,K_1*%
%TO.N,/row 5*%
X131000000Y-117120000D03*
D11*
%TO.P,D48,2,A_2*%
%TO.N,Net-(D48-A)*%
X131000000Y-109500000D03*
%TD*%
D12*
%TO.P,SW23,1,1_1*%
%TO.N,/col 1*%
X28690000Y-69460000D03*
%TO.P,SW23,2,2_2*%
%TO.N,Net-(D23-A)*%
X35040000Y-66920000D03*
%TD*%
D10*
%TO.P,D18,1,K_1*%
%TO.N,/row 2*%
X199500000Y-53000000D03*
D11*
%TO.P,D18,2,A_2*%
%TO.N,Net-(D18-A)*%
X199500000Y-45380000D03*
%TD*%
D12*
%TO.P,SW50,1,1_1*%
%TO.N,/col 6*%
X136690000Y-111960000D03*
%TO.P,SW50,2,2_2*%
%TO.N,Net-(D49-A)*%
X143040000Y-109420000D03*
%TD*%
%TO.P,SW21,1,1_1*%
%TO.N,/col 10*%
X205000000Y-48000000D03*
%TO.P,SW21,2,2_2*%
%TO.N,Net-(D19-A)*%
X211350000Y-45460000D03*
%TD*%
D10*
%TO.P,D1,1,K_1*%
%TO.N,/row 1*%
X85500000Y-31810000D03*
D11*
%TO.P,D1,2,A_2*%
%TO.N,Net-(D1-A)*%
X85500000Y-24190000D03*
%TD*%
D10*
%TO.P,D33,1,K_1*%
%TO.N,/row 3*%
X244000000Y-74620000D03*
D11*
%TO.P,D33,2,A_2*%
%TO.N,Net-(D33-A)*%
X244000000Y-67000000D03*
%TD*%
D12*
%TO.P,SW51,1,1_1*%
%TO.N,/col 7*%
X155690000Y-111960000D03*
%TO.P,SW51,2,2_2*%
%TO.N,Net-(D50-A)*%
X162040000Y-109420000D03*
%TD*%
D10*
%TO.P,D15,1,K_1*%
%TO.N,/row 2*%
X142500000Y-53310000D03*
D11*
%TO.P,D15,2,A_2*%
%TO.N,Net-(D15-A)*%
X142500000Y-45690000D03*
%TD*%
D10*
%TO.P,D9,1,K_1*%
%TO.N,/row 1*%
X66500000Y-31810000D03*
D11*
%TO.P,D9,2,A_2*%
%TO.N,Net-(D9-A)*%
X66500000Y-24190000D03*
%TD*%
D12*
%TO.P,SW59,1,1_1*%
%TO.N,/col 3*%
X65690000Y-133960000D03*
%TO.P,SW59,2,2_2*%
%TO.N,Net-(D59-A)*%
X72040000Y-131420000D03*
%TD*%
D10*
%TO.P,D51,1,K_1*%
%TO.N,/row 5*%
X188000000Y-117120000D03*
D11*
%TO.P,D51,2,A_2*%
%TO.N,Net-(D51-A)*%
X188000000Y-109500000D03*
%TD*%
D10*
%TO.P,D63,1,K_1*%
%TO.N,/row 6*%
X257500000Y-140890000D03*
D11*
%TO.P,D63,2,A_2*%
%TO.N,Net-(D63-A)*%
X257500000Y-133270000D03*
%TD*%
D12*
%TO.P,SW26,1,1_1*%
%TO.N,/col 4*%
X91190000Y-69460000D03*
%TO.P,SW26,2,2_2*%
%TO.N,Net-(D26-A)*%
X97540000Y-66920000D03*
%TD*%
%TO.P,SW27,1,1_1*%
%TO.N,/col 5*%
X110190000Y-69460000D03*
%TO.P,SW27,2,2_2*%
%TO.N,Net-(D27-A)*%
X116540000Y-66920000D03*
%TD*%
D10*
%TO.P,D3,1,K_1*%
%TO.N,/row 1*%
X123500000Y-31810000D03*
D11*
%TO.P,D3,2,A_2*%
%TO.N,Net-(D3-A)*%
X123500000Y-24190000D03*
%TD*%
D12*
%TO.P,SW33,1,1_1*%
%TO.N,/col 11*%
X230190000Y-69460000D03*
%TO.P,SW33,2,2_2*%
%TO.N,Net-(D33-A)*%
X236540000Y-66920000D03*
%TD*%
D10*
%TO.P,D23,1,K_1*%
%TO.N,/row 3*%
X42000000Y-74000000D03*
D11*
%TO.P,D23,2,A_2*%
%TO.N,Net-(D23-A)*%
X42000000Y-66380000D03*
%TD*%
D10*
%TO.P,D17,1,K_1*%
%TO.N,/row 2*%
X180500000Y-53310000D03*
D11*
%TO.P,D17,2,A_2*%
%TO.N,Net-(D17-A)*%
X180500000Y-45690000D03*
%TD*%
D10*
%TO.P,D25,1,K_1*%
%TO.N,/row 3*%
X85500000Y-74810000D03*
D11*
%TO.P,D25,2,A_2*%
%TO.N,Net-(D25-A)*%
X85500000Y-67190000D03*
%TD*%
D10*
%TO.P,D22,1,K_1*%
%TO.N,/row 2*%
X123500000Y-53310000D03*
D11*
%TO.P,D22,2,A_2*%
%TO.N,Net-(D22-A)*%
X123500000Y-45690000D03*
%TD*%
D10*
%TO.P,D37,1,K_1*%
%TO.N,/row 4*%
X104500000Y-95810000D03*
D11*
%TO.P,D37,2,A_2*%
%TO.N,Net-(D37-A)*%
X104500000Y-88190000D03*
%TD*%
D12*
%TO.P,SW36,1,1_1*%
%TO.N,/col 3*%
X72190000Y-90460000D03*
%TO.P,SW36,2,2_2*%
%TO.N,Net-(D36-A)*%
X78540000Y-87920000D03*
%TD*%
D10*
%TO.P,D49,1,K_1*%
%TO.N,/row 5*%
X149500000Y-117120000D03*
D11*
%TO.P,D49,2,A_2*%
%TO.N,Net-(D49-A)*%
X149500000Y-109500000D03*
%TD*%
D12*
%TO.P,SW57,1,1_1*%
%TO.N,/col 11*%
X282190000Y-135460000D03*
%TO.P,SW57,2,2_2*%
%TO.N,Net-(D57-A)*%
X288540000Y-132920000D03*
%TD*%
%TO.P,SW3,1,1_1*%
%TO.N,/col 3*%
X72190000Y-26460000D03*
%TO.P,SW3,2,2_2*%
%TO.N,Net-(D1-A)*%
X78540000Y-23920000D03*
%TD*%
D10*
%TO.P,D14,1,K_1*%
%TO.N,/row 2*%
X85500000Y-53310000D03*
D11*
%TO.P,D14,2,A_2*%
%TO.N,Net-(D14-A)*%
X85500000Y-45690000D03*
%TD*%
D12*
%TO.P,SW38,1,1_1*%
%TO.N,/col 5*%
X110190000Y-90460000D03*
%TO.P,SW38,2,2_2*%
%TO.N,Net-(D38-A)*%
X116540000Y-87920000D03*
%TD*%
%TO.P,SW42,1,1_1*%
%TO.N,/col 9*%
X186190000Y-90460000D03*
%TO.P,SW42,2,2_2*%
%TO.N,Net-(D42-A)*%
X192540000Y-87920000D03*
%TD*%
%TO.P,SW28,1,1_1*%
%TO.N,/col 6*%
X129190000Y-69460000D03*
%TO.P,SW28,2,2_2*%
%TO.N,Net-(D28-A)*%
X135540000Y-66920000D03*
%TD*%
D10*
%TO.P,D52,1,K_1*%
%TO.N,/row 5*%
X207000000Y-117120000D03*
D11*
%TO.P,D52,2,A_2*%
%TO.N,Net-(D52-A)*%
X207000000Y-109500000D03*
%TD*%
D10*
%TO.P,D55,1,K_1*%
%TO.N,/row 5*%
X42000000Y-117310000D03*
D11*
%TO.P,D55,2,A_2*%
%TO.N,Net-(D55-A)*%
X42000000Y-109690000D03*
%TD*%
D12*
%TO.P,SW15,1,1_1*%
%TO.N,/col 4*%
X91190000Y-47960000D03*
%TO.P,SW15,2,2_2*%
%TO.N,Net-(D21-A)*%
X97540000Y-45420000D03*
%TD*%
D10*
%TO.P,D36,1,K_1*%
%TO.N,/row 4*%
X85500000Y-95810000D03*
D11*
%TO.P,D36,2,A_2*%
%TO.N,Net-(D36-A)*%
X85500000Y-88190000D03*
%TD*%
D10*
%TO.P,D34,1,K_1*%
%TO.N,/row 4*%
X42500000Y-95310000D03*
D11*
%TO.P,D34,2,A_2*%
%TO.N,Net-(D34-A)*%
X42500000Y-87690000D03*
%TD*%
D12*
%TO.P,SW1,1,1_1*%
%TO.N,/col 1*%
X28690000Y-26460000D03*
%TO.P,SW1,2,2_2*%
%TO.N,Net-(D8-A)*%
X35040000Y-23920000D03*
%TD*%
D10*
%TO.P,D12,1,K_1*%
%TO.N,/row 2*%
X43500000Y-53000000D03*
D11*
%TO.P,D12,2,A_2*%
%TO.N,Net-(D12-A)*%
X43500000Y-45380000D03*
%TD*%
D10*
%TO.P,D60,1,K_1*%
%TO.N,/row 6*%
X150000000Y-138310000D03*
D11*
%TO.P,D60,2,A_2*%
%TO.N,Net-(D60-A)*%
X150000000Y-130690000D03*
%TD*%
D12*
%TO.P,SW45,1,1_1*%
%TO.N,/col 1*%
X28690000Y-111960000D03*
%TO.P,SW45,2,2_2*%
%TO.N,Net-(D55-A)*%
X35040000Y-109420000D03*
%TD*%
%TO.P,SW31,1,1_1*%
%TO.N,/col 9*%
X186140000Y-69460000D03*
%TO.P,SW31,2,2_2*%
%TO.N,Net-(D31-A)*%
X192490000Y-66920000D03*
%TD*%
D10*
%TO.P,D16,1,K_1*%
%TO.N,/row 2*%
X161500000Y-53500000D03*
D11*
%TO.P,D16,2,A_2*%
%TO.N,Net-(D16-A)*%
X161500000Y-45880000D03*
%TD*%
D12*
%TO.P,SW56,1,1_1*%
%TO.N,/col 2*%
X46670000Y-134000000D03*
%TO.P,SW56,2,2_2*%
%TO.N,Net-(D56-A)*%
X53020000Y-131460000D03*
%TD*%
%TO.P,SW37,1,1_1*%
%TO.N,/col 4*%
X91190000Y-90460000D03*
%TO.P,SW37,2,2_2*%
%TO.N,Net-(D37-A)*%
X97540000Y-87920000D03*
%TD*%
%TO.P,SW35,1,1_1*%
%TO.N,/col 2*%
X53110000Y-90460000D03*
%TO.P,SW35,2,2_2*%
%TO.N,Net-(D35-A)*%
X59460000Y-87920000D03*
%TD*%
D10*
%TO.P,D58,1,K_1*%
%TO.N,/row 6*%
X40500000Y-139310000D03*
D11*
%TO.P,D58,2,A_2*%
%TO.N,Net-(D58-A)*%
X40500000Y-131690000D03*
%TD*%
D12*
%TO.P,SW60,1,1_1*%
%TO.N,/col 4*%
X136690000Y-132960000D03*
%TO.P,SW60,2,2_2*%
%TO.N,Net-(D60-A)*%
X143040000Y-130420000D03*
%TD*%
%TO.P,SW58,1,1_1*%
%TO.N,/col 1*%
X27690000Y-133960000D03*
%TO.P,SW58,2,2_2*%
%TO.N,Net-(D58-A)*%
X34040000Y-131420000D03*
%TD*%
D10*
%TO.P,D24,1,K_1*%
%TO.N,/row 3*%
X66000000Y-74810000D03*
D11*
%TO.P,D24,2,A_2*%
%TO.N,Net-(D24-A)*%
X66000000Y-67190000D03*
%TD*%
D10*
%TO.P,D31,1,K_1*%
%TO.N,/row 3*%
X199500000Y-74620000D03*
D11*
%TO.P,D31,2,A_2*%
%TO.N,Net-(D31-A)*%
X199500000Y-67000000D03*
%TD*%
D10*
%TO.P,D4,1,K_1*%
%TO.N,/row 1*%
X142500000Y-31810000D03*
D11*
%TO.P,D4,2,A_2*%
%TO.N,Net-(D4-A)*%
X142500000Y-24190000D03*
%TD*%
D10*
%TO.P,D20,1,K_1*%
%TO.N,/row 2*%
X243500000Y-52810000D03*
D11*
%TO.P,D20,2,A_2*%
%TO.N,Net-(D20-A)*%
X243500000Y-45190000D03*
%TD*%
D12*
%TO.P,SW47,1,1_1*%
%TO.N,/col 3*%
X79690000Y-111960000D03*
%TO.P,SW47,2,2_2*%
%TO.N,Net-(D46-A)*%
X86040000Y-109420000D03*
%TD*%
D10*
%TO.P,D7,1,K_1*%
%TO.N,/row 1*%
X243500000Y-31810000D03*
D11*
%TO.P,D7,2,A_2*%
%TO.N,Net-(D7-A)*%
X243500000Y-24190000D03*
%TD*%
D10*
%TO.P,D26,1,K_1*%
%TO.N,/row 3*%
X104500000Y-74620000D03*
D11*
%TO.P,D26,2,A_2*%
%TO.N,Net-(D26-A)*%
X104500000Y-67000000D03*
%TD*%
D10*
%TO.P,D53,1,K_1*%
%TO.N,/row 5*%
X226000000Y-117120000D03*
D11*
%TO.P,D53,2,A_2*%
%TO.N,Net-(D53-A)*%
X226000000Y-109500000D03*
%TD*%
D12*
%TO.P,SW30,1,1_1*%
%TO.N,/col 8*%
X167190000Y-69460000D03*
%TO.P,SW30,2,2_2*%
%TO.N,Net-(D30-A)*%
X173540000Y-66920000D03*
%TD*%
%TO.P,SW22,1,1_1*%
%TO.N,/col 11*%
X230190000Y-47500000D03*
%TO.P,SW22,2,2_2*%
%TO.N,Net-(D20-A)*%
X236540000Y-44960000D03*
%TD*%
%TO.P,SW39,1,1_1*%
%TO.N,/col 6*%
X129190000Y-90460000D03*
%TO.P,SW39,2,2_2*%
%TO.N,Net-(D39-A)*%
X135540000Y-87920000D03*
%TD*%
D10*
%TO.P,D38,1,K_1*%
%TO.N,/row 4*%
X123500000Y-95810000D03*
D11*
%TO.P,D38,2,A_2*%
%TO.N,Net-(D38-A)*%
X123500000Y-88190000D03*
%TD*%
D12*
%TO.P,SW29,1,1_1*%
%TO.N,/col 7*%
X148190000Y-69460000D03*
%TO.P,SW29,2,2_2*%
%TO.N,Net-(D29-A)*%
X154540000Y-66920000D03*
%TD*%
D10*
%TO.P,D11,1,K_1*%
%TO.N,/row 1*%
X218500000Y-31810000D03*
D11*
%TO.P,D11,2,A_2*%
%TO.N,Net-(D11-A)*%
X218500000Y-24190000D03*
%TD*%
D10*
%TO.P,D29,1,K_1*%
%TO.N,/row 3*%
X161500000Y-74810000D03*
D11*
%TO.P,D29,2,A_2*%
%TO.N,Net-(D29-A)*%
X161500000Y-67190000D03*
%TD*%
D12*
%TO.P,SW11,1,1_1*%
%TO.N,/col 11*%
X230190000Y-26460000D03*
%TO.P,SW11,2,2_2*%
%TO.N,Net-(D7-A)*%
X236540000Y-23920000D03*
%TD*%
D10*
%TO.P,D65,1,K_1*%
%TO.N,/row 6*%
X276500000Y-121810000D03*
D11*
%TO.P,D65,2,A_2*%
%TO.N,Net-(D65-A)*%
X276500000Y-114190000D03*
%TD*%
D10*
%TO.P,D30,1,K_1*%
%TO.N,/row 3*%
X180500000Y-74310000D03*
D11*
%TO.P,D30,2,A_2*%
%TO.N,Net-(D30-A)*%
X180500000Y-66690000D03*
%TD*%
D12*
%TO.P,SW49,1,1_1*%
%TO.N,/col 5*%
X117690000Y-111960000D03*
%TO.P,SW49,2,2_2*%
%TO.N,Net-(D48-A)*%
X124040000Y-109420000D03*
%TD*%
%TO.P,SW34,1,1_1*%
%TO.N,/col 1*%
X28690000Y-90460000D03*
%TO.P,SW34,2,2_2*%
%TO.N,Net-(D34-A)*%
X35040000Y-87920000D03*
%TD*%
D10*
%TO.P,D66,1,K_1*%
%TO.N,/row 6*%
X265000000Y-94810000D03*
D11*
%TO.P,D66,2,A_2*%
%TO.N,Net-(D66-A)*%
X265000000Y-87190000D03*
%TD*%
D10*
%TO.P,D41,1,K_1*%
%TO.N,/row 4*%
X180500000Y-95620000D03*
D11*
%TO.P,D41,2,A_2*%
%TO.N,Net-(D41-A)*%
X180500000Y-88000000D03*
%TD*%
D10*
%TO.P,D32,1,K_1*%
%TO.N,/row 3*%
X218500000Y-74810000D03*
D11*
%TO.P,D32,2,A_2*%
%TO.N,Net-(D32-A)*%
X218500000Y-67190000D03*
%TD*%
D12*
%TO.P,SW4,1,1_1*%
%TO.N,/col 4*%
X91190000Y-26460000D03*
%TO.P,SW4,2,2_2*%
%TO.N,Net-(D2-A)*%
X97540000Y-23920000D03*
%TD*%
%TO.P,SW61,1,1_1*%
%TO.N,/col 5*%
X206110000Y-135460000D03*
%TO.P,SW61,2,2_2*%
%TO.N,Net-(D61-A)*%
X212460000Y-132920000D03*
%TD*%
D14*
%TO.P,A1,1,GPIO0_1*%
%TO.N,/row 1*%
X261720000Y-20640000D03*
D11*
%TO.P,A1,2,GPIO1_2*%
%TO.N,/row 2*%
X261720000Y-23180000D03*
D15*
%TO.P,A1,3,GND_3*%
%TO.N,unconnected-(A1-GND-Pad13)_6*%
X261720000Y-25720000D03*
D11*
%TO.P,A1,4,GPIO2_4*%
%TO.N,/row 3*%
X261720000Y-28260000D03*
%TO.P,A1,5,GPIO3_5*%
%TO.N,/row 4*%
X261720000Y-30800000D03*
%TO.P,A1,6,GPIO4_6*%
%TO.N,/row 5*%
X261720000Y-33340000D03*
%TO.P,A1,7,GPIO5_7*%
%TO.N,/row 6*%
X261720000Y-35880000D03*
D15*
%TO.P,A1,8,GND_8*%
%TO.N,unconnected-(A1-GND-Pad13)_2*%
X261720000Y-38420000D03*
D11*
%TO.P,A1,9,GPIO6_9*%
%TO.N,/col 1*%
X261720000Y-40960000D03*
%TO.P,A1,10,GPIO7_10*%
%TO.N,/col 2*%
X261720000Y-43500000D03*
%TO.P,A1,11,GPIO8_11*%
%TO.N,/col 3*%
X261720000Y-46040000D03*
%TO.P,A1,12,GPIO9_12*%
%TO.N,/col 4*%
X261720000Y-48580000D03*
D15*
%TO.P,A1,13,GND_13*%
%TO.N,unconnected-(A1-GND-Pad13)_1*%
X261720000Y-51120000D03*
D11*
%TO.P,A1,14,GPIO10_14*%
%TO.N,/col 5*%
X261720000Y-53660000D03*
%TO.P,A1,15,GPIO11_15*%
%TO.N,/col 6*%
X261720000Y-56200000D03*
%TO.P,A1,16,GPIO12_16*%
%TO.N,/col 7*%
X261720000Y-58740000D03*
%TO.P,A1,17,GPIO13_17*%
%TO.N,/col 8*%
X261720000Y-61280000D03*
D15*
%TO.P,A1,18,GND_18*%
%TO.N,unconnected-(A1-GND-Pad13)_3*%
X261720000Y-63820000D03*
D11*
%TO.P,A1,19,GPIO14_19*%
%TO.N,/col 9*%
X261720000Y-66360000D03*
%TO.P,A1,20,GPIO15_20*%
%TO.N,/col 10*%
X261720000Y-68900000D03*
%TO.P,A1,21,GPIO16_21*%
%TO.N,/col 11*%
X279500000Y-68900000D03*
%TO.P,A1,22,GPIO17_22*%
%TO.N,unconnected-(A1-GPIO17-Pad22)*%
X279500000Y-66360000D03*
D16*
%TO.P,A1,23,GND_23*%
%TO.N,unconnected-(A1-GND-Pad13)_4*%
X279500000Y-63820000D03*
D11*
%TO.P,A1,24,GPIO18_24*%
%TO.N,unconnected-(A1-GPIO18-Pad24)*%
X279500000Y-61280000D03*
%TO.P,A1,25,GPIO19_25*%
%TO.N,unconnected-(A1-GPIO19-Pad25)*%
X279500000Y-58740000D03*
%TO.P,A1,26,GPIO20_26*%
%TO.N,unconnected-(A1-GPIO20-Pad26)*%
X279500000Y-56200000D03*
%TO.P,A1,27,GPIO21_27*%
%TO.N,unconnected-(A1-GPIO21-Pad27)*%
X279500000Y-53660000D03*
D16*
%TO.P,A1,28,GND_28*%
%TO.N,unconnected-(A1-GND-Pad13)*%
X279500000Y-51120000D03*
D11*
%TO.P,A1,29,GPIO22_29*%
%TO.N,unconnected-(A1-GPIO22-Pad29)*%
X279500000Y-48580000D03*
%TO.P,A1,30,RUN_30*%
%TO.N,unconnected-(A1-RUN-Pad30)*%
X279500000Y-46040000D03*
%TO.P,A1,31,GPIO26_ADC0_31*%
%TO.N,unconnected-(A1-GPIO26_ADC0-Pad31)*%
X279500000Y-43500000D03*
%TO.P,A1,32,GPIO27_ADC1_32*%
%TO.N,unconnected-(A1-GPIO27_ADC1-Pad32)*%
X279500000Y-40960000D03*
D16*
%TO.P,A1,33,AGND_33*%
%TO.N,unconnected-(A1-AGND-Pad33)*%
X279500000Y-38420000D03*
D11*
%TO.P,A1,34,GPIO28_ADC2_34*%
%TO.N,unconnected-(A1-GPIO28_ADC2-Pad34)*%
X279500000Y-35880000D03*
%TO.P,A1,35,ADC_VREF_35*%
%TO.N,unconnected-(A1-ADC_VREF-Pad35)*%
X279500000Y-33340000D03*
%TO.P,A1,36,3V3_36*%
%TO.N,unconnected-(A1-3V3-Pad36)*%
X279500000Y-30800000D03*
%TO.P,A1,37,3V3_EN_37*%
%TO.N,unconnected-(A1-3V3_EN-Pad37)*%
X279500000Y-28260000D03*
D16*
%TO.P,A1,38,GND_38*%
%TO.N,unconnected-(A1-GND-Pad13)_5*%
X279500000Y-25720000D03*
D11*
%TO.P,A1,39,VSYS_39*%
%TO.N,unconnected-(A1-VSYS-Pad39)*%
X279500000Y-23180000D03*
%TO.P,A1,40,VBUS_40*%
%TO.N,unconnected-(A1-VBUS-Pad40)*%
X279500000Y-20640000D03*
%TD*%
%TO.N,/col 3*%
D17*
X257200000Y-45150000D02*
X257200000Y-19331372D01*
%TO.N,/col 1*%
X258080000Y-40500000D02*
X258540000Y-40960000D01*
X258000000Y-40500000D02*
X258080000Y-40500000D01*
X258540000Y-40960000D02*
X261720000Y-40960000D01*
X258000000Y-19000000D02*
X258000000Y-40500000D01*
X256900000Y-17900000D02*
X258000000Y-19000000D01*
X30100000Y-17900000D02*
X256900000Y-17900000D01*
X28690000Y-26460000D02*
X28690000Y-19310000D01*
X28690000Y-19310000D02*
X30100000Y-17900000D01*
%TO.N,/col 7*%
X274821422Y-58740000D02*
X261720000Y-58740000D01*
X278796422Y-62715000D02*
X274821422Y-58740000D01*
X283640000Y-66397292D02*
X279957708Y-62715000D01*
X283640000Y-136060610D02*
X283640000Y-66397292D01*
X282790610Y-136910000D02*
X283640000Y-136060610D01*
X279538780Y-134859390D02*
X281589390Y-136910000D01*
X265841220Y-134859390D02*
X279538780Y-134859390D01*
X262589390Y-136910000D02*
X263790610Y-136910000D01*
X261219390Y-135540000D02*
X262589390Y-136910000D01*
X263790610Y-136910000D02*
X265841220Y-134859390D01*
X279957708Y-62715000D02*
X278796422Y-62715000D01*
X244190000Y-135540000D02*
X261219390Y-135540000D01*
X281589390Y-136910000D02*
X282790610Y-136910000D01*
%TO.N,/col 11*%
X282190000Y-86701317D02*
X279500000Y-84011317D01*
X279500000Y-84011317D02*
X279500000Y-68900000D01*
%TO.N,/col 9*%
X188700000Y-20800000D02*
X253734314Y-20800000D01*
X186190000Y-23310000D02*
X188700000Y-20800000D01*
X255100000Y-22165686D02*
X255100000Y-60960000D01*
X186190000Y-26460000D02*
X186190000Y-23310000D01*
X253734314Y-20800000D02*
X255100000Y-22165686D01*
%TO.N,/col 10*%
X253610000Y-60790000D02*
X261720000Y-68900000D01*
X253000000Y-61400000D02*
X253610000Y-60790000D01*
X253000000Y-21200000D02*
X253000000Y-61400000D01*
X207300000Y-21200000D02*
X253000000Y-21200000D01*
X205000000Y-23500000D02*
X207300000Y-21200000D01*
X205190000Y-26460000D02*
X205190000Y-23690000D01*
X205190000Y-23690000D02*
X205000000Y-23500000D01*
%TO.N,/col 9*%
X255100000Y-60960000D02*
X255710000Y-60350000D01*
%TO.N,/col 8*%
X256110000Y-56220000D02*
X256110000Y-55670000D01*
X255500000Y-56830000D02*
X256110000Y-56220000D01*
%TO.N,/col 5*%
X257010000Y-51790000D02*
X257010000Y-51240000D01*
X256400000Y-52400000D02*
X257010000Y-51790000D01*
%TO.N,/col 6*%
X256491370Y-53381370D02*
X256610000Y-53500000D01*
X256000000Y-53381370D02*
X256491370Y-53381370D01*
X257888630Y-53500000D02*
X260588630Y-56200000D01*
X256610000Y-53500000D02*
X257888630Y-53500000D01*
X260588630Y-56200000D02*
X261720000Y-56200000D01*
%TO.N,/col 4*%
X91500000Y-19100000D02*
X256402942Y-19100000D01*
X256402942Y-19100000D02*
X256800000Y-19497058D01*
X257410000Y-46640000D02*
X259350000Y-48580000D01*
X91190000Y-19410000D02*
X91500000Y-19100000D01*
X256800000Y-19497058D02*
X256800000Y-47250000D01*
X91190000Y-26460000D02*
X91190000Y-19410000D01*
X256800000Y-47250000D02*
X257410000Y-46640000D01*
X259350000Y-48580000D02*
X261720000Y-48580000D01*
%TO.N,/col 3*%
X257200000Y-45150000D02*
X257810000Y-44540000D01*
%TO.N,/col 2*%
X257600000Y-19165686D02*
X257600000Y-42550000D01*
X259770000Y-43500000D02*
X261720000Y-43500000D01*
X256734314Y-18300000D02*
X257600000Y-19165686D01*
X53500000Y-18300000D02*
X256734314Y-18300000D01*
X53010000Y-18790000D02*
X53500000Y-18300000D01*
X258210000Y-41940000D02*
X259770000Y-43500000D01*
X53010000Y-26460000D02*
X53010000Y-18790000D01*
X257600000Y-42550000D02*
X258210000Y-41940000D01*
%TO.N,Net-(D47-A)*%
X111920000Y-109420000D02*
X112000000Y-109500000D01*
X105040000Y-109420000D02*
X111920000Y-109420000D01*
%TO.N,/col 9*%
X255710000Y-60350000D02*
X261720000Y-66360000D01*
X193690000Y-118190000D02*
X203500000Y-128000000D01*
X186190000Y-104460000D02*
X193690000Y-111960000D01*
X193690000Y-111960000D02*
X193690000Y-118190000D01*
X186190000Y-47960000D02*
X186190000Y-69410000D01*
X186140000Y-90410000D02*
X186190000Y-90460000D01*
X186140000Y-69460000D02*
X186140000Y-90410000D01*
X266500000Y-125000000D02*
X264656100Y-123156100D01*
X263500000Y-128000000D02*
X266500000Y-125000000D01*
X186190000Y-69410000D02*
X186140000Y-69460000D01*
X203500000Y-128000000D02*
X263500000Y-128000000D01*
X264656100Y-117926100D02*
X263190000Y-116460000D01*
X186190000Y-26460000D02*
X186190000Y-47960000D01*
X186190000Y-90460000D02*
X186190000Y-104460000D01*
X264656100Y-123156100D02*
X264656100Y-117926100D01*
%TO.N,Net-(D10-A)*%
X192540000Y-23920000D02*
X199230000Y-23920000D01*
X199230000Y-23920000D02*
X199500000Y-24190000D01*
%TO.N,Net-(D43-A)*%
X211540000Y-87920000D02*
X218230000Y-87920000D01*
X218230000Y-87920000D02*
X218500000Y-88190000D01*
%TO.N,Net-(D42-A)*%
X192540000Y-87920000D02*
X199270000Y-87920000D01*
X199270000Y-87920000D02*
X199500000Y-87690000D01*
%TO.N,/col 10*%
X205000000Y-48000000D02*
X205190000Y-47810000D01*
X212690000Y-111960000D02*
X205190000Y-104460000D01*
X205190000Y-48190000D02*
X205000000Y-48000000D01*
X212690000Y-122690000D02*
X215000000Y-125000000D01*
X205190000Y-47810000D02*
X205190000Y-26460000D01*
X212690000Y-111960000D02*
X212690000Y-122690000D01*
X205190000Y-69460000D02*
X205190000Y-48190000D01*
X251690000Y-118690000D02*
X251690000Y-89960000D01*
X254500000Y-121500000D02*
X251690000Y-118690000D01*
X251000000Y-125000000D02*
X254500000Y-121500000D01*
X205190000Y-104460000D02*
X205190000Y-90460000D01*
X215000000Y-125000000D02*
X251000000Y-125000000D01*
X205190000Y-90460000D02*
X205190000Y-69460000D01*
%TO.N,Net-(D66-A)*%
X258040000Y-87420000D02*
X264770000Y-87420000D01*
X264770000Y-87420000D02*
X265000000Y-87190000D01*
%TO.N,Net-(D27-A)*%
X116540000Y-66920000D02*
X123420000Y-66920000D01*
X123420000Y-66920000D02*
X123500000Y-67000000D01*
%TO.N,/col 7*%
X193500000Y-126185225D02*
X193500000Y-131500000D01*
X177824775Y-110510000D02*
X193500000Y-126185225D01*
X174089390Y-110510000D02*
X177824775Y-110510000D01*
X196530000Y-131470000D02*
X240120000Y-131470000D01*
X155690000Y-111960000D02*
X172639390Y-111960000D01*
X148190000Y-26460000D02*
X148190000Y-47960000D01*
X155690000Y-111960000D02*
X148190000Y-104460000D01*
X148190000Y-69460000D02*
X148190000Y-90460000D01*
X193500000Y-131500000D02*
X195000000Y-133000000D01*
X195000000Y-133000000D02*
X196530000Y-131470000D01*
X148190000Y-47960000D02*
X148190000Y-69460000D01*
X148190000Y-104460000D02*
X148190000Y-90460000D01*
X240120000Y-131470000D02*
X244190000Y-135540000D01*
X172639390Y-111960000D02*
X174089390Y-110510000D01*
%TO.N,Net-(D16-A)*%
X161040000Y-45420000D02*
X161500000Y-45880000D01*
X154540000Y-45420000D02*
X161040000Y-45420000D01*
%TO.N,Net-(D62-A)*%
X238230000Y-133000000D02*
X238460000Y-132770000D01*
X231500000Y-133000000D02*
X238230000Y-133000000D01*
%TO.N,/col 2*%
X53010000Y-26460000D02*
X53010000Y-47780000D01*
X53110000Y-90460000D02*
X53110000Y-105380000D01*
X53190000Y-47960000D02*
X53190000Y-69360000D01*
X53090000Y-69460000D02*
X53090000Y-90440000D01*
X53190000Y-69360000D02*
X53090000Y-69460000D01*
X53110000Y-105380000D02*
X59690000Y-111960000D01*
X46670000Y-123353655D02*
X46670000Y-134000000D01*
X53090000Y-90440000D02*
X53110000Y-90460000D01*
X59690000Y-111960000D02*
X58063655Y-111960000D01*
X58063655Y-111960000D02*
X46670000Y-123353655D01*
X53010000Y-47780000D02*
X53190000Y-47960000D01*
%TO.N,Net-(D9-A)*%
X59360000Y-23920000D02*
X66230000Y-23920000D01*
X66230000Y-23920000D02*
X66500000Y-24190000D01*
%TO.N,Net-(D19-A)*%
X218420000Y-45460000D02*
X218500000Y-45380000D01*
X211350000Y-45460000D02*
X218420000Y-45460000D01*
%TO.N,/col 11*%
X267670610Y-110000000D02*
X278500000Y-110000000D01*
X236190000Y-111460000D02*
X229190000Y-104460000D01*
X253140000Y-89359390D02*
X253140000Y-95469390D01*
X253140000Y-95469390D02*
X267670610Y-110000000D01*
X236190000Y-103409390D02*
X251089390Y-88510000D01*
X252290610Y-88510000D02*
X253140000Y-89359390D01*
X229190000Y-104460000D02*
X229190000Y-89960000D01*
X278500000Y-110000000D02*
X282190000Y-113690000D01*
X282190000Y-135460000D02*
X282190000Y-86701317D01*
X230190000Y-88960000D02*
X230190000Y-69460000D01*
X251089390Y-88510000D02*
X252290610Y-88510000D01*
X230190000Y-69460000D02*
X230190000Y-47500000D01*
X236190000Y-111460000D02*
X236190000Y-103409390D01*
X282190000Y-113690000D02*
X282190000Y-135460000D01*
X230190000Y-47500000D02*
X230190000Y-26460000D01*
X229190000Y-89960000D02*
X230190000Y-88960000D01*
%TO.N,Net-(D54-A)*%
X249420000Y-108920000D02*
X249500000Y-109000000D01*
X242540000Y-108920000D02*
X249420000Y-108920000D01*
%TO.N,Net-(D44-A)*%
X242420000Y-87420000D02*
X242500000Y-87500000D01*
X235540000Y-87420000D02*
X242420000Y-87420000D01*
%TO.N,Net-(D45-A)*%
X72730000Y-109420000D02*
X73000000Y-109690000D01*
X66040000Y-109420000D02*
X72730000Y-109420000D01*
%TO.N,Net-(D46-A)*%
X92230000Y-109420000D02*
X92500000Y-109690000D01*
X86040000Y-109420000D02*
X92230000Y-109420000D01*
%TO.N,Net-(D13-A)*%
X66230000Y-45420000D02*
X66500000Y-45690000D01*
X59540000Y-45420000D02*
X66230000Y-45420000D01*
%TO.N,Net-(D6-A)*%
X173540000Y-23920000D02*
X180230000Y-23920000D01*
X180230000Y-23920000D02*
X180500000Y-24190000D01*
%TO.N,/col 3*%
X79690000Y-111960000D02*
X79690000Y-119960000D01*
X257810000Y-44540000D02*
X259310000Y-46040000D01*
X72190000Y-90460000D02*
X72190000Y-104460000D01*
X72190000Y-104460000D02*
X79690000Y-111960000D01*
X79690000Y-119960000D02*
X65690000Y-133960000D01*
X72190000Y-26460000D02*
X72190000Y-47960000D01*
X72190000Y-47960000D02*
X72190000Y-69460000D01*
X72190000Y-69460000D02*
X72190000Y-90460000D01*
X259310000Y-46040000D02*
X261720000Y-46040000D01*
%TO.N,Net-(D25-A)*%
X78540000Y-66920000D02*
X85230000Y-66920000D01*
X85230000Y-66920000D02*
X85500000Y-67190000D01*
%TO.N,/col 8*%
X167190000Y-21210000D02*
X168000000Y-20400000D01*
X160470875Y-116843900D02*
X158523290Y-116843900D01*
X181637412Y-113275000D02*
X186275000Y-113275000D01*
X256110000Y-55670000D02*
X261720000Y-61280000D01*
X147589390Y-25010000D02*
X151324775Y-25010000D01*
X174500000Y-109500000D02*
X177862412Y-109500000D01*
X151324775Y-25010000D02*
X168556100Y-42241325D01*
X255500000Y-22000000D02*
X255500000Y-56830000D01*
X168556100Y-42241325D02*
X168556100Y-103556100D01*
X167190000Y-47960000D02*
X167190000Y-69460000D01*
X186275000Y-113275000D02*
X203000000Y-130000000D01*
X257730000Y-130000000D02*
X263190000Y-135460000D01*
X167190000Y-90360000D02*
X167090000Y-90460000D01*
X253900000Y-20400000D02*
X255500000Y-22000000D01*
X168556100Y-103556100D02*
X174500000Y-109500000D01*
X167190000Y-26460000D02*
X167190000Y-47960000D01*
X173540000Y-113110000D02*
X164204775Y-113110000D01*
X145695000Y-104015610D02*
X145695000Y-26904390D01*
X168000000Y-20400000D02*
X253900000Y-20400000D01*
X164204775Y-113110000D02*
X160470875Y-116843900D01*
X158523290Y-116843900D02*
X145695000Y-104015610D01*
X167190000Y-26460000D02*
X167190000Y-21210000D01*
X174690000Y-111960000D02*
X173540000Y-113110000D01*
X177862412Y-109500000D02*
X181637412Y-113275000D01*
X203000000Y-130000000D02*
X257730000Y-130000000D01*
X167190000Y-69460000D02*
X167190000Y-90360000D01*
X145695000Y-26904390D02*
X147589390Y-25010000D01*
%TO.N,Net-(D51-A)*%
X187920000Y-109420000D02*
X188000000Y-109500000D01*
X181040000Y-109420000D02*
X187920000Y-109420000D01*
%TO.N,Net-(D52-A)*%
X206920000Y-109420000D02*
X207000000Y-109500000D01*
X200040000Y-109420000D02*
X206920000Y-109420000D01*
%TO.N,Net-(D35-A)*%
X66270000Y-87920000D02*
X66500000Y-87690000D01*
X59460000Y-87920000D02*
X66270000Y-87920000D01*
%TO.N,Net-(D28-A)*%
X135540000Y-66920000D02*
X142420000Y-66920000D01*
X142420000Y-66920000D02*
X142500000Y-67000000D01*
%TO.N,Net-(D61-A)*%
X219150000Y-132920000D02*
X219420000Y-133190000D01*
X212460000Y-132920000D02*
X219150000Y-132920000D01*
%TO.N,Net-(D65-A)*%
X276230000Y-113920000D02*
X276500000Y-114190000D01*
X269540000Y-113920000D02*
X276230000Y-113920000D01*
%TO.N,Net-(D59-A)*%
X78920000Y-131420000D02*
X79000000Y-131500000D01*
X72040000Y-131420000D02*
X78920000Y-131420000D01*
%TO.N,Net-(D14-A)*%
X85230000Y-45420000D02*
X85500000Y-45690000D01*
X78540000Y-45420000D02*
X85230000Y-45420000D01*
%TO.N,Net-(D57-A)*%
X288540000Y-132920000D02*
X295270000Y-132920000D01*
X295270000Y-132920000D02*
X295500000Y-132690000D01*
%TO.N,/col 5*%
X117690000Y-111960000D02*
X117690000Y-114004775D01*
X110190000Y-20310000D02*
X111000000Y-19500000D01*
X117690000Y-111960000D02*
X110190000Y-104460000D01*
X256237256Y-19500000D02*
X256400000Y-19662744D01*
X194198558Y-135460000D02*
X206110000Y-135460000D01*
X110190000Y-90460000D02*
X110190000Y-69460000D01*
X256400000Y-19662744D02*
X256400000Y-52400000D01*
X117690000Y-114004775D02*
X132655225Y-128970000D01*
X117690000Y-111960000D02*
X118090000Y-111560000D01*
X259430000Y-53660000D02*
X261720000Y-53660000D01*
X111000000Y-19500000D02*
X256237256Y-19500000D01*
X110270000Y-69380000D02*
X110270000Y-47960000D01*
X110190000Y-26460000D02*
X110190000Y-20310000D01*
X110270000Y-26540000D02*
X110190000Y-26460000D01*
X110270000Y-47960000D02*
X110270000Y-26540000D01*
X132655225Y-128970000D02*
X187708558Y-128970000D01*
X187708558Y-128970000D02*
X194198558Y-135460000D01*
X110190000Y-104460000D02*
X110190000Y-90460000D01*
X257010000Y-51240000D02*
X259430000Y-53660000D01*
X110190000Y-69460000D02*
X110270000Y-69380000D01*
%TO.N,Net-(D22-A)*%
X116620000Y-45420000D02*
X123230000Y-45420000D01*
X123230000Y-45420000D02*
X123500000Y-45690000D01*
%TO.N,Net-(D53-A)*%
X219040000Y-109420000D02*
X225920000Y-109420000D01*
X225920000Y-109420000D02*
X226000000Y-109500000D01*
%TO.N,Net-(D21-A)*%
X97540000Y-45420000D02*
X104230000Y-45420000D01*
X104230000Y-45420000D02*
X104500000Y-45690000D01*
%TO.N,Net-(D5-A)*%
X154540000Y-23920000D02*
X161230000Y-23920000D01*
X161230000Y-23920000D02*
X161500000Y-24190000D01*
%TO.N,Net-(D24-A)*%
X65730000Y-66920000D02*
X66000000Y-67190000D01*
X59440000Y-66920000D02*
X65730000Y-66920000D01*
%TO.N,/col 4*%
X91190000Y-69460000D02*
X91190000Y-90460000D01*
X98690000Y-111960000D02*
X98690000Y-114004775D01*
X98690000Y-114004775D02*
X117645225Y-132960000D01*
X91190000Y-26460000D02*
X91190000Y-47960000D01*
X91190000Y-47960000D02*
X91190000Y-69460000D01*
X117645225Y-132960000D02*
X136690000Y-132960000D01*
X91190000Y-104460000D02*
X98690000Y-111960000D01*
X91190000Y-90460000D02*
X91190000Y-104460000D01*
%TO.N,Net-(D41-A)*%
X173440000Y-87920000D02*
X180420000Y-87920000D01*
X180420000Y-87920000D02*
X180500000Y-88000000D01*
%TO.N,Net-(D17-A)*%
X173540000Y-45420000D02*
X180230000Y-45420000D01*
X180230000Y-45420000D02*
X180500000Y-45690000D01*
%TO.N,/col 6*%
X129190000Y-69460000D02*
X129190000Y-90460000D01*
X194500000Y-135000000D02*
X195000000Y-135000000D01*
X129190000Y-26460000D02*
X129190000Y-47880000D01*
X192806250Y-129693750D02*
X191000000Y-131500000D01*
X129270000Y-69380000D02*
X129190000Y-69460000D01*
X256000000Y-21000000D02*
X256000000Y-53381370D01*
X129190000Y-90460000D02*
X133774775Y-90460000D01*
X136690000Y-111960000D02*
X136690000Y-127810000D01*
X255000000Y-20000000D02*
X256000000Y-21000000D01*
X129190000Y-21710000D02*
X131000000Y-19900000D01*
X136500000Y-128000000D02*
X187768558Y-128000000D01*
X136690000Y-127810000D02*
X136500000Y-128000000D01*
X136690000Y-93375225D02*
X136690000Y-111960000D01*
X192806250Y-127562308D02*
X192806250Y-129693750D01*
X131000000Y-19900000D02*
X131100000Y-20000000D01*
X131100000Y-20000000D02*
X255000000Y-20000000D01*
X195000000Y-135000000D02*
X195990000Y-134010000D01*
X211499390Y-134010000D02*
X213029390Y-135540000D01*
X129270000Y-47960000D02*
X129270000Y-69380000D01*
X133774775Y-90460000D02*
X136690000Y-93375225D01*
X189553558Y-126215000D02*
X191458942Y-126215000D01*
X191458942Y-126215000D02*
X192806250Y-127562308D01*
X187768558Y-128000000D02*
X189553558Y-126215000D01*
X129190000Y-47880000D02*
X129270000Y-47960000D01*
X191000000Y-131500000D02*
X194500000Y-135000000D01*
X129190000Y-26460000D02*
X129190000Y-21710000D01*
X195990000Y-134010000D02*
X211499390Y-134010000D01*
X213029390Y-135540000D02*
X225150000Y-135540000D01*
%TO.N,Net-(D15-A)*%
X142230000Y-45420000D02*
X142500000Y-45690000D01*
X135620000Y-45420000D02*
X142230000Y-45420000D01*
%TO.N,Net-(D11-A)*%
X211540000Y-23920000D02*
X218230000Y-23920000D01*
X218230000Y-23920000D02*
X218500000Y-24190000D01*
%TO.N,Net-(D32-A)*%
X211540000Y-66920000D02*
X218230000Y-66920000D01*
X218230000Y-66920000D02*
X218500000Y-67190000D01*
%TO.N,Net-(D18-A)*%
X192540000Y-45420000D02*
X199460000Y-45420000D01*
X199460000Y-45420000D02*
X199500000Y-45380000D01*
%TO.N,Net-(D40-A)*%
X154540000Y-87920000D02*
X161230000Y-87920000D01*
X161230000Y-87920000D02*
X161500000Y-88190000D01*
%TO.N,Net-(D64-A)*%
X276920000Y-132610000D02*
X277000000Y-132690000D01*
X269540000Y-132920000D02*
X276770000Y-132920000D01*
X276770000Y-132920000D02*
X277000000Y-132690000D01*
%TO.N,Net-(D4-A)*%
X142230000Y-23920000D02*
X142500000Y-24190000D01*
X135540000Y-23920000D02*
X142230000Y-23920000D01*
%TO.N,Net-(D63-A)*%
X250540000Y-133000000D02*
X257230000Y-133000000D01*
X257230000Y-133000000D02*
X257500000Y-133270000D01*
%TO.N,Net-(D50-A)*%
X162040000Y-109420000D02*
X168730000Y-109420000D01*
X168730000Y-109420000D02*
X169000000Y-109690000D01*
%TO.N,/col 1*%
X28690000Y-132960000D02*
X27690000Y-133960000D01*
X28690000Y-69460000D02*
X28690000Y-90460000D01*
X28690000Y-26460000D02*
X28690000Y-47960000D01*
X28690000Y-111960000D02*
X28690000Y-132960000D01*
X28690000Y-90460000D02*
X28690000Y-111960000D01*
X28690000Y-47960000D02*
X28690000Y-69460000D01*
%TO.N,Net-(D12-A)*%
X35040000Y-45420000D02*
X43460000Y-45420000D01*
X43460000Y-45420000D02*
X43500000Y-45380000D01*
%TO.N,Net-(D8-A)*%
X41770000Y-23920000D02*
X42000000Y-23690000D01*
X35040000Y-23920000D02*
X41770000Y-23920000D01*
%TO.N,Net-(D56-A)*%
X53020000Y-131460000D02*
X59770000Y-131460000D01*
X59770000Y-131460000D02*
X60000000Y-131690000D01*
%TO.N,Net-(D2-A)*%
X104270000Y-23920000D02*
X104500000Y-23690000D01*
X97540000Y-23920000D02*
X104270000Y-23920000D01*
%TO.N,Net-(D3-A)*%
X123230000Y-23920000D02*
X123500000Y-24190000D01*
X116540000Y-23920000D02*
X123230000Y-23920000D01*
%TO.N,Net-(D39-A)*%
X135540000Y-87920000D02*
X142420000Y-87920000D01*
X142420000Y-87920000D02*
X142500000Y-88000000D01*
%TO.N,Net-(D48-A)*%
X130920000Y-109420000D02*
X131000000Y-109500000D01*
X124040000Y-109420000D02*
X130920000Y-109420000D01*
%TO.N,Net-(D23-A)*%
X35040000Y-66920000D02*
X41770000Y-66920000D01*
X41770000Y-66920000D02*
X42000000Y-66690000D01*
%TO.N,Net-(D49-A)*%
X143040000Y-109420000D02*
X149420000Y-109420000D01*
X149420000Y-109420000D02*
X149500000Y-109500000D01*
%TO.N,Net-(D1-A)*%
X78540000Y-23920000D02*
X85230000Y-23920000D01*
X85230000Y-23920000D02*
X85500000Y-24190000D01*
%TO.N,Net-(D33-A)*%
X243920000Y-66920000D02*
X244000000Y-67000000D01*
X236540000Y-66920000D02*
X243920000Y-66920000D01*
%TO.N,Net-(D26-A)*%
X104420000Y-66920000D02*
X104500000Y-67000000D01*
X97540000Y-66920000D02*
X104420000Y-66920000D01*
%TO.N,Net-(D37-A)*%
X104230000Y-87920000D02*
X104500000Y-88190000D01*
X97540000Y-87920000D02*
X104230000Y-87920000D01*
%TO.N,Net-(D36-A)*%
X78540000Y-87920000D02*
X85230000Y-87920000D01*
X85230000Y-87920000D02*
X85500000Y-88190000D01*
%TO.N,Net-(D38-A)*%
X123230000Y-87920000D02*
X123500000Y-88190000D01*
X116540000Y-87920000D02*
X123230000Y-87920000D01*
%TO.N,Net-(D55-A)*%
X41730000Y-109420000D02*
X42000000Y-109690000D01*
X35040000Y-109420000D02*
X41730000Y-109420000D01*
%TO.N,Net-(D34-A)*%
X42270000Y-87920000D02*
X42500000Y-87690000D01*
X35040000Y-87920000D02*
X42270000Y-87920000D01*
%TO.N,Net-(D60-A)*%
X149730000Y-130420000D02*
X150000000Y-130690000D01*
X143040000Y-130420000D02*
X149730000Y-130420000D01*
%TO.N,Net-(D31-A)*%
X199420000Y-66920000D02*
X199500000Y-67000000D01*
X192490000Y-66920000D02*
X199420000Y-66920000D01*
%TO.N,Net-(D58-A)*%
X34040000Y-131420000D02*
X40230000Y-131420000D01*
X40230000Y-131420000D02*
X40500000Y-131690000D01*
%TO.N,Net-(D20-A)*%
X236540000Y-44960000D02*
X243270000Y-44960000D01*
X243270000Y-44960000D02*
X243500000Y-45190000D01*
%TO.N,Net-(D7-A)*%
X243230000Y-23920000D02*
X243500000Y-24190000D01*
X236540000Y-23920000D02*
X243230000Y-23920000D01*
%TO.N,Net-(D30-A)*%
X180270000Y-66920000D02*
X180500000Y-66690000D01*
X173540000Y-66920000D02*
X180270000Y-66920000D01*
%TO.N,Net-(D29-A)*%
X161230000Y-66920000D02*
X161500000Y-67190000D01*
X154540000Y-66920000D02*
X161230000Y-66920000D01*
%TO.N,/col 3*%
X256568628Y-18700000D02*
X257200000Y-19331372D01*
X72190000Y-19510000D02*
X73000000Y-18700000D01*
X73000000Y-18700000D02*
X256568628Y-18700000D01*
X72190000Y-26460000D02*
X72190000Y-19510000D01*
%TD*%
M02*
